<svg xmlns="http://www.w3.org/2000/svg" xmlns:xlink="http://www.w3.org/1999/xlink" contentStyleType="text/css" data-diagram-type="CLASS" height="608px" preserveAspectRatio="none" style="width:790px;height:608px;background:#1B1B1B;" version="1.1" viewBox="0 0 790 608" width="790px" zoomAndPan="magnify"><defs/><g><rect fill="#1B1B1B" height="608" style="stroke:none;stroke-width:1;" width="790" x="0" y="0"/><!--class AbstractProductA--><g id="elem_AbstractProductA"><rect codeLine="1" fill="#313139" height="48" id="AbstractProductA" rx="2.5" ry="2.5" style="stroke:#E7E7E7;stroke-width:0.5;" width="154.0557" x="156.76" y="445.08"/><ellipse cx="171.76" cy="461.08" fill="#352866" rx="11" ry="11" style="stroke:#E7E7E7;stroke-width:1;"/><path d="M167.6819,456.8456 L167.6819,454.6894 L175.0725,454.6894 L175.0725,456.8456 L172.6038,456.8456 L172.6038,464.9238 L175.0725,464.9238 L175.0725,467.08 L167.6819,467.08 L167.6819,464.9238 L170.1506,464.9238 L170.1506,456.8456 L167.6819,456.8456 Z " fill="#FFFFFF"/><text fill="#FFFFFF" font-family="sans-serif" font-size="14" font-style="italic" lengthAdjust="spacing" textLength="122.0557" x="185.76" y="465.9267">AbstractProductA</text><line style="stroke:#E7E7E7;stroke-width:0.5;" x1="157.76" x2="309.8157" y1="477.08" y2="477.08"/><line style="stroke:#E7E7E7;stroke-width:0.5;" x1="157.76" x2="309.8157" y1="485.08" y2="485.08"/></g><!--class AbstractProductB--><g id="elem_AbstractProductB"><rect codeLine="5" fill="#313139" height="48" id="AbstractProductB" rx="2.5" ry="2.5" style="stroke:#E7E7E7;stroke-width:0.5;" width="154.083" x="491.75" y="445.08"/><ellipse cx="506.75" cy="461.08" fill="#352866" rx="11" ry="11" style="stroke:#E7E7E7;stroke-width:1;"/><path d="M502.6719,456.8456 L502.6719,454.6894 L510.0625,454.6894 L510.0625,456.8456 L507.5938,456.8456 L507.5938,464.9238 L510.0625,464.9238 L510.0625,467.08 L502.6719,467.08 L502.6719,464.9238 L505.1406,464.9238 L505.1406,456.8456 L502.6719,456.8456 Z " fill="#FFFFFF"/><text fill="#FFFFFF" font-family="sans-serif" font-size="14" font-style="italic" lengthAdjust="spacing" textLength="122.083" x="520.75" y="465.9267">AbstractProductB</text><line style="stroke:#E7E7E7;stroke-width:0.5;" x1="492.75" x2="644.833" y1="477.08" y2="477.08"/><line style="stroke:#E7E7E7;stroke-width:0.5;" x1="492.75" x2="644.833" y1="485.08" y2="485.08"/></g><!--class ConcreteProductA1--><g id="elem_ConcreteProductA1"><rect codeLine="9" fill="#313139" height="48" id="ConcreteProductA1" rx="2.5" ry="2.5" style="stroke:#E7E7E7;stroke-width:0.5;" width="167.5771" x="7" y="553.08"/><ellipse cx="22" cy="569.08" fill="#2E5233" rx="11" ry="11" style="stroke:#E7E7E7;stroke-width:1;"/><path d="M24.9688,574.7206 Q24.3906,575.0175 23.75,575.1581 Q23.1094,575.3144 22.4063,575.3144 Q19.9063,575.3144 18.5781,573.6738 Q17.2656,572.0175 17.2656,568.8925 Q17.2656,565.7675 18.5781,564.1113 Q19.9063,562.455 22.4063,562.455 Q23.1094,562.455 23.75,562.6113 Q24.4063,562.7675 24.9688,563.0644 L24.9688,565.7831 Q24.3438,565.205 23.75,564.9394 Q23.1563,564.6581 22.5313,564.6581 Q21.1875,564.6581 20.5,565.7363 Q19.8125,566.7988 19.8125,568.8925 Q19.8125,570.9863 20.5,572.0644 Q21.1875,573.1269 22.5313,573.1269 Q23.1563,573.1269 23.75,572.8613 Q24.3438,572.58 24.9688,572.0019 L24.9688,574.7206 Z " fill="#FFFFFF"/><text fill="#FFFFFF" font-family="sans-serif" font-size="14" lengthAdjust="spacing" textLength="135.5771" x="36" y="573.9267">ConcreteProductA1</text><line style="stroke:#E7E7E7;stroke-width:0.5;" x1="8" x2="173.5771" y1="585.08" y2="585.08"/><line style="stroke:#E7E7E7;stroke-width:0.5;" x1="8" x2="173.5771" y1="593.08" y2="593.08"/></g><!--class ConcreteProductB1--><g id="elem_ConcreteProductB1"><rect codeLine="13" fill="#313139" height="48" id="ConcreteProductB1" rx="2.5" ry="2.5" style="stroke:#E7E7E7;stroke-width:0.5;" width="167.6045" x="412.99" y="553.08"/><ellipse cx="427.99" cy="569.08" fill="#2E5233" rx="11" ry="11" style="stroke:#E7E7E7;stroke-width:1;"/><path d="M430.9588,574.7206 Q430.3806,575.0175 429.74,575.1581 Q429.0994,575.3144 428.3963,575.3144 Q425.8963,575.3144 424.5681,573.6738 Q423.2556,572.0175 423.2556,568.8925 Q423.2556,565.7675 424.5681,564.1113 Q425.8963,562.455 428.3963,562.455 Q429.0994,562.455 429.74,562.6113 Q430.3963,562.7675 430.9588,563.0644 L430.9588,565.7831 Q430.3338,565.205 429.74,564.9394 Q429.1463,564.6581 428.5213,564.6581 Q427.1775,564.6581 426.49,565.7363 Q425.8025,566.7988 425.8025,568.8925 Q425.8025,570.9863 426.49,572.0644 Q427.1775,573.1269 428.5213,573.1269 Q429.1463,573.1269 429.74,572.8613 Q430.3338,572.58 430.9588,572.0019 L430.9588,574.7206 Z " fill="#FFFFFF"/><text fill="#FFFFFF" font-family="sans-serif" font-size="14" lengthAdjust="spacing" textLength="135.6045" x="441.99" y="573.9267">ConcreteProductB1</text><line style="stroke:#E7E7E7;stroke-width:0.5;" x1="413.99" x2="579.5945" y1="585.08" y2="585.08"/><line style="stroke:#E7E7E7;stroke-width:0.5;" x1="413.99" x2="579.5945" y1="593.08" y2="593.08"/></g><!--class ConcreteProductA2--><g id="elem_ConcreteProductA2"><rect codeLine="17" fill="#313139" height="48" id="ConcreteProductA2" rx="2.5" ry="2.5" style="stroke:#E7E7E7;stroke-width:0.5;" width="167.5771" x="210" y="553.08"/><ellipse cx="225" cy="569.08" fill="#2E5233" rx="11" ry="11" style="stroke:#E7E7E7;stroke-width:1;"/><path d="M227.9688,574.7206 Q227.3906,575.0175 226.75,575.1581 Q226.1094,575.3144 225.4063,575.3144 Q222.9063,575.3144 221.5781,573.6738 Q220.2656,572.0175 220.2656,568.8925 Q220.2656,565.7675 221.5781,564.1113 Q222.9063,562.455 225.4063,562.455 Q226.1094,562.455 226.75,562.6113 Q227.4063,562.7675 227.9688,563.0644 L227.9688,565.7831 Q227.3438,565.205 226.75,564.9394 Q226.1563,564.6581 225.5313,564.6581 Q224.1875,564.6581 223.5,565.7363 Q222.8125,566.7988 222.8125,568.8925 Q222.8125,570.9863 223.5,572.0644 Q224.1875,573.1269 225.5313,573.1269 Q226.1563,573.1269 226.75,572.8613 Q227.3438,572.58 227.9688,572.0019 L227.9688,574.7206 Z " fill="#FFFFFF"/><text fill="#FFFFFF" font-family="sans-serif" font-size="14" lengthAdjust="spacing" textLength="135.5771" x="239" y="573.9267">ConcreteProductA2</text><line style="stroke:#E7E7E7;stroke-width:0.5;" x1="211" x2="376.5771" y1="585.08" y2="585.08"/><line style="stroke:#E7E7E7;stroke-width:0.5;" x1="211" x2="376.5771" y1="593.08" y2="593.08"/></g><!--class ConcreteProductB2--><g id="elem_ConcreteProductB2"><rect codeLine="21" fill="#313139" height="48" id="ConcreteProductB2" rx="2.5" ry="2.5" style="stroke:#E7E7E7;stroke-width:0.5;" width="167.6045" x="615.99" y="553.08"/><ellipse cx="630.99" cy="569.08" fill="#2E5233" rx="11" ry="11" style="stroke:#E7E7E7;stroke-width:1;"/><path d="M633.9588,574.7206 Q633.3806,575.0175 632.74,575.1581 Q632.0994,575.3144 631.3963,575.3144 Q628.8963,575.3144 627.5681,573.6738 Q626.2556,572.0175 626.2556,568.8925 Q626.2556,565.7675 627.5681,564.1113 Q628.8963,562.455 631.3963,562.455 Q632.0994,562.455 632.74,562.6113 Q633.3963,562.7675 633.9588,563.0644 L633.9588,565.7831 Q633.3338,565.205 632.74,564.9394 Q632.1463,564.6581 631.5213,564.6581 Q630.1775,564.6581 629.49,565.7363 Q628.8025,566.7988 628.8025,568.8925 Q628.8025,570.9863 629.49,572.0644 Q630.1775,573.1269 631.5213,573.1269 Q632.1463,573.1269 632.74,572.8613 Q633.3338,572.58 633.9588,572.0019 L633.9588,574.7206 Z " fill="#FFFFFF"/><text fill="#FFFFFF" font-family="sans-serif" font-size="14" lengthAdjust="spacing" textLength="135.6045" x="644.99" y="573.9267">ConcreteProductB2</text><line style="stroke:#E7E7E7;stroke-width:0.5;" x1="616.99" x2="782.5945" y1="585.08" y2="585.08"/><line style="stroke:#E7E7E7;stroke-width:0.5;" x1="616.99" x2="782.5945" y1="593.08" y2="593.08"/></g><!--class AbstractFactory--><g id="elem_AbstractFactory"><rect codeLine="25" fill="#313139" height="80.5938" id="AbstractFactory" rx="2.5" ry="2.5" style="stroke:#E7E7E7;stroke-width:0.5;" width="203.4678" x="300.05" y="163.89"/><ellipse cx="342.1735" cy="179.89" fill="#352866" rx="11" ry="11" style="stroke:#E7E7E7;stroke-width:1;"/><path d="M338.0954,175.6556 L338.0954,173.4994 L345.486,173.4994 L345.486,175.6556 L343.0172,175.6556 L343.0172,183.7338 L345.486,183.7338 L345.486,185.89 L338.0954,185.89 L338.0954,183.7338 L340.5641,183.7338 L340.5641,175.6556 L338.0954,175.6556 Z " fill="#FFFFFF"/><text fill="#FFFFFF" font-family="sans-serif" font-size="14" font-style="italic" lengthAdjust="spacing" textLength="111.1934" x="362.2009" y="184.7367">AbstractFactory</text><line style="stroke:#E7E7E7;stroke-width:0.5;" x1="301.05" x2="502.5178" y1="195.89" y2="195.89"/><line style="stroke:#E7E7E7;stroke-width:0.5;" x1="301.05" x2="502.5178" y1="203.89" y2="203.89"/><text fill="#FFFFFF" font-family="sans-serif" font-size="14" lengthAdjust="spacing" textLength="191.4131" x="306.05" y="220.8851">createProductA(): ProductA</text><text fill="#FFFFFF" font-family="sans-serif" font-size="14" lengthAdjust="spacing" textLength="191.4678" x="306.05" y="237.182">createProductB(): ProductB</text></g><!--class ConcreteFactory1--><g id="elem_ConcreteFactory1"><rect codeLine="30" fill="#313139" height="80.5938" id="ConcreteFactory1" rx="2.5" ry="2.5" style="stroke:#E7E7E7;stroke-width:0.5;" width="203.4678" x="181.05" y="304.49"/><ellipse cx="217.0888" cy="320.49" fill="#2E5233" rx="11" ry="11" style="stroke:#E7E7E7;stroke-width:1;"/><path d="M220.0576,326.1306 Q219.4794,326.4275 218.8388,326.5681 Q218.1982,326.7244 217.4951,326.7244 Q214.9951,326.7244 213.6669,325.0838 Q212.3544,323.4275 212.3544,320.3025 Q212.3544,317.1775 213.6669,315.5213 Q214.9951,313.865 217.4951,313.865 Q218.1982,313.865 218.8388,314.0213 Q219.4951,314.1775 220.0576,314.4744 L220.0576,317.1931 Q219.4326,316.615 218.8388,316.3494 Q218.2451,316.0681 217.6201,316.0681 Q216.2763,316.0681 215.5888,317.1463 Q214.9013,318.2088 214.9013,320.3025 Q214.9013,322.3963 215.5888,323.4744 Q216.2763,324.5369 217.6201,324.5369 Q218.2451,324.5369 218.8388,324.2713 Q219.4326,323.99 220.0576,323.4119 L220.0576,326.1306 Z " fill="#FFFFFF"/><text fill="#FFFFFF" font-family="sans-serif" font-size="14" lengthAdjust="spacing" textLength="124.7148" x="235.7641" y="325.3367">ConcreteFactory1</text><line style="stroke:#E7E7E7;stroke-width:0.5;" x1="182.05" x2="383.5178" y1="336.49" y2="336.49"/><line style="stroke:#E7E7E7;stroke-width:0.5;" x1="182.05" x2="383.5178" y1="344.49" y2="344.49"/><text fill="#FFFFFF" font-family="sans-serif" font-size="14" lengthAdjust="spacing" textLength="191.4131" x="187.05" y="361.4851">createProductA(): ProductA</text><text fill="#FFFFFF" font-family="sans-serif" font-size="14" lengthAdjust="spacing" textLength="191.4678" x="187.05" y="377.782">createProductB(): ProductB</text></g><!--class ConcreteFactory2--><g id="elem_ConcreteFactory2"><rect codeLine="35" fill="#313139" height="80.5938" id="ConcreteFactory2" rx="2.5" ry="2.5" style="stroke:#E7E7E7;stroke-width:0.5;" width="203.4678" x="419.05" y="304.49"/><ellipse cx="455.0888" cy="320.49" fill="#2E5233" rx="11" ry="11" style="stroke:#E7E7E7;stroke-width:1;"/><path d="M458.0576,326.1306 Q457.4794,326.4275 456.8388,326.5681 Q456.1982,326.7244 455.4951,326.7244 Q452.9951,326.7244 451.6669,325.0838 Q450.3544,323.4275 450.3544,320.3025 Q450.3544,317.1775 451.6669,315.5213 Q452.9951,313.865 455.4951,313.865 Q456.1982,313.865 456.8388,314.0213 Q457.4951,314.1775 458.0576,314.4744 L458.0576,317.1931 Q457.4326,316.615 456.8388,316.3494 Q456.2451,316.0681 455.6201,316.0681 Q454.2763,316.0681 453.5888,317.1463 Q452.9013,318.2088 452.9013,320.3025 Q452.9013,322.3963 453.5888,323.4744 Q454.2763,324.5369 455.6201,324.5369 Q456.2451,324.5369 456.8388,324.2713 Q457.4326,323.99 458.0576,323.4119 L458.0576,326.1306 Z " fill="#FFFFFF"/><text fill="#FFFFFF" font-family="sans-serif" font-size="14" lengthAdjust="spacing" textLength="124.7148" x="473.7641" y="325.3367">ConcreteFactory2</text><line style="stroke:#E7E7E7;stroke-width:0.5;" x1="420.05" x2="621.5178" y1="336.49" y2="336.49"/><line style="stroke:#E7E7E7;stroke-width:0.5;" x1="420.05" x2="621.5178" y1="344.49" y2="344.49"/><text fill="#FFFFFF" font-family="sans-serif" font-size="14" lengthAdjust="spacing" textLength="191.4131" x="425.05" y="361.4851">createProductA(): ProductA</text><text fill="#FFFFFF" font-family="sans-serif" font-size="14" lengthAdjust="spacing" textLength="191.4678" x="425.05" y="377.782">createProductB(): ProductB</text></g><!--class Client--><g id="elem_Client"><rect codeLine="40" fill="#313139" height="96.8906" id="Client" rx="2.5" ry="2.5" style="stroke:#E7E7E7;stroke-width:0.5;" width="188.7432" x="307.42" y="7"/><ellipse cx="377.2764" cy="23" fill="#2E5233" rx="11" ry="11" style="stroke:#E7E7E7;stroke-width:1;"/><path d="M380.2452,28.6406 Q379.6671,28.9375 379.0264,29.0781 Q378.3858,29.2344 377.6827,29.2344 Q375.1827,29.2344 373.8546,27.5938 Q372.5421,25.9375 372.5421,22.8125 Q372.5421,19.6875 373.8546,18.0313 Q375.1827,16.375 377.6827,16.375 Q378.3858,16.375 379.0264,16.5313 Q379.6827,16.6875 380.2452,16.9844 L380.2452,19.7031 Q379.6202,19.125 379.0264,18.8594 Q378.4327,18.5781 377.8077,18.5781 Q376.4639,18.5781 375.7764,19.6563 Q375.0889,20.7188 375.0889,22.8125 Q375.0889,24.9063 375.7764,25.9844 Q376.4639,27.0469 377.8077,27.0469 Q378.4327,27.0469 379.0264,26.7813 Q379.6202,26.5 380.2452,25.9219 L380.2452,28.6406 Z " fill="#FFFFFF"/><text fill="#FFFFFF" font-family="sans-serif" font-size="14" lengthAdjust="spacing" textLength="40.5303" x="397.7764" y="27.8467">Client</text><line style="stroke:#E7E7E7;stroke-width:0.5;" x1="308.42" x2="495.1632" y1="39" y2="39"/><text fill="#FFFFFF" font-family="sans-serif" font-size="14" lengthAdjust="spacing" textLength="169.6611" x="313.42" y="55.9951">factory: AbstractFactory</text><line style="stroke:#E7E7E7;stroke-width:0.5;" x1="308.42" x2="495.1632" y1="63.2969" y2="63.2969"/><text fill="#FFFFFF" font-family="sans-serif" font-size="14" lengthAdjust="spacing" textLength="176.7432" x="313.42" y="80.292">Client(f: AbstractFactory)</text><text fill="#FFFFFF" font-family="sans-serif" font-size="14" lengthAdjust="spacing" textLength="118.7061" x="313.42" y="96.5889">someOperation()</text></g><!--reverse link AbstractProductA to ConcreteProductA1--><g id="link_AbstractProductA_ConcreteProductA1"><path d="M187.9498,504.0593 C164.0998,521.7393 145.92,535.21 122.1,552.87 " fill="none" id="AbstractProductA-backto-ConcreteProductA1" style="stroke:#E7E7E7;stroke-width:1;stroke-dasharray:7.0,7.0;"/><polygon fill="none" points="202.41,493.34,184.3767,499.2393,191.5229,508.8794,202.41,493.34" style="stroke:#E7E7E7;stroke-width:1;"/></g><!--reverse link AbstractProductB to ConcreteProductB1--><g id="link_AbstractProductB_ConcreteProductB1"><path d="M542.8756,508.2295 C530.8656,525.9095 524.55,535.21 512.55,552.87 " fill="none" id="AbstractProductB-backto-ConcreteProductB1" style="stroke:#E7E7E7;stroke-width:1;stroke-dasharray:7.0,7.0;"/><polygon fill="none" points="552.99,493.34,537.9124,504.8581,547.8387,511.601,552.99,493.34" style="stroke:#E7E7E7;stroke-width:1;"/></g><!--reverse link AbstractProductA to ConcreteProductA2--><g id="link_AbstractProductA_ConcreteProductA2"><path d="M255.8217,509.0075 C265.8217,526.6875 270.66,535.21 280.65,552.87 " fill="none" id="AbstractProductA-backto-ConcreteProductA2" style="stroke:#E7E7E7;stroke-width:1;stroke-dasharray:7.0,7.0;"/><polygon fill="none" points="246.96,493.34,250.5992,511.9614,261.0442,506.0536,246.96,493.34" style="stroke:#E7E7E7;stroke-width:1;"/></g><!--reverse link AbstractProductB to ConcreteProductB2--><g id="link_AbstractProductB_ConcreteProductB2"><path d="M611.5304,504.6656 C633.3704,522.3456 649.28,535.21 671.11,552.87 " fill="none" id="AbstractProductB-backto-ConcreteProductB2" style="stroke:#E7E7E7;stroke-width:1;stroke-dasharray:7.0,7.0;"/><polygon fill="none" points="597.54,493.34,607.7552,509.329,615.3056,500.0021,597.54,493.34" style="stroke:#E7E7E7;stroke-width:1;"/></g><!--reverse link AbstractFactory to ConcreteFactory1--><g id="link_AbstractFactory_ConcreteFactory1"><path d="M355.9624,258.5552 C340.0224,277.1152 332.83,285.5 316.89,304.06 " fill="none" id="AbstractFactory-backto-ConcreteFactory1" style="stroke:#E7E7E7;stroke-width:1;stroke-dasharray:7.0,7.0;"/><polygon fill="none" points="367.69,244.9,351.4107,254.646,360.5142,262.4644,367.69,244.9" style="stroke:#E7E7E7;stroke-width:1;"/></g><!--reverse link AbstractFactory to ConcreteFactory2--><g id="link_AbstractFactory_ConcreteFactory2"><path d="M447.6133,258.5588 C463.5433,277.1188 470.75,285.5 486.68,304.06 " fill="none" id="AbstractFactory-backto-ConcreteFactory2" style="stroke:#E7E7E7;stroke-width:1;stroke-dasharray:7.0,7.0;"/><polygon fill="none" points="435.89,244.9,443.0604,262.4666,452.1663,254.651,435.89,244.9" style="stroke:#E7E7E7;stroke-width:1;"/></g><!--reverse link Client to AbstractFactory--><g id="link_Client_AbstractFactory"><path codeLine="47" d="M401.79,116.09 C401.79,135.34 401.79,145.29 401.79,163.63 " fill="none" id="Client-backto-AbstractFactory" style="stroke:#E7E7E7;stroke-width:1;"/><polygon fill="none" points="401.79,104.09,397.79,110.09,401.79,116.09,405.79,110.09,401.79,104.09" style="stroke:#E7E7E7;stroke-width:1;"/></g><!--link ConcreteFactory1 to ConcreteProductA1--><g id="link_ConcreteFactory1_ConcreteProductA1"><path codeLine="48" d="M207.14,385.44 C182.65,401.28 157.11,421.43 138.79,445.08 C113.57,477.63 101.9027,518.8459 96.0827,546.8059 " fill="none" id="ConcreteFactory1-to-ConcreteProductA1" style="stroke:#E7E7E7;stroke-width:1;stroke-dasharray:7.0,7.0;"/><polygon fill="#E7E7E7" points="94.86,552.68,100.6101,544.684,95.8789,547.7849,92.778,543.0537,94.86,552.68" style="stroke:#E7E7E7;stroke-width:1;"/></g><!--link ConcreteFactory1 to ConcreteProductB1--><g id="link_ConcreteFactory1_ConcreteProductB1"><path codeLine="49" d="M319.58,385.37 C364.39,433.6 434.5357,509.0848 471.0557,548.3848 " fill="none" id="ConcreteFactory1-to-ConcreteProductB1" style="stroke:#E7E7E7;stroke-width:1;stroke-dasharray:7.0,7.0;"/><polygon fill="#E7E7E7" points="475.14,552.78,471.9437,543.4642,471.7364,549.1173,466.0833,548.91,475.14,552.78" style="stroke:#E7E7E7;stroke-width:1;"/></g><!--link ConcreteFactory2 to ConcreteProductA2--><g id="link_ConcreteFactory2_ConcreteProductA2"><path codeLine="50" d="M481.77,385.37 C434.23,433.6 359.7021,509.207 320.9621,548.507 " fill="none" id="ConcreteFactory2-to-ConcreteProductA2" style="stroke:#E7E7E7;stroke-width:1;stroke-dasharray:7.0,7.0;"/><polygon fill="#E7E7E7" points="316.75,552.78,325.9168,549.1786,320.2601,549.2192,320.2195,543.5625,316.75,552.78" style="stroke:#E7E7E7;stroke-width:1;"/></g><!--link ConcreteFactory2 to ConcreteProductB2--><g id="link_ConcreteFactory2_ConcreteProductB2"><path codeLine="51" d="M598.15,385.42 C622.22,401.1 646.85,421.15 663.79,445.08 C686.96,477.81 694.6012,518.873 697.5412,546.773 " fill="none" id="ConcreteFactory2-to-ConcreteProductB2" style="stroke:#E7E7E7;stroke-width:1;stroke-dasharray:7.0,7.0;"/><polygon fill="#E7E7E7" points="698.17,552.74,701.2048,543.3704,697.646,547.7675,693.2489,544.2087,698.17,552.74" style="stroke:#E7E7E7;stroke-width:1;"/></g><!--SRC=[jPB12i8m44Jl-OeSsqCBvjY3q0XUzHTYt4AWJIHP3oB-koccADrQY-WX49ZPDykmnYBuHcdWzI6WLnhttXtF6cj-PUp6c7bdaCcWMnK2tpYhFI0CqojkkbCB7LWC13qpAES6vLoY-3PHV4wa9MpZS_uIE-0HffvhP7d5X_z8ao-QfFiav6G1IVjzclXpMciYkM-fUJ2hSGXZoPGrHCiP3ww3tGcyGkDiblVan7H5GLYaoh8ir_Gsb_aayObfdbZca-8E]--></g></svg>