<svg xmlns="http://www.w3.org/2000/svg" xmlns:xlink="http://www.w3.org/1999/xlink" contentStyleType="text/css" data-diagram-type="CLASS" height="300px" preserveAspectRatio="none" style="width:1747px;height:300px;background:#1B1B1B;" version="1.1" viewBox="0 0 1747 300" width="1747px" zoomAndPan="magnify"><defs/><g><rect fill="#1B1B1B" height="300" style="stroke:transparent;stroke-width:1;" width="1747" x="0" y="0"/><!--class AbstractFactory--><g id="elem_AbstractFactory"><rect codeLine="1" fill="#313139" height="113.1875" id="AbstractFactory" rx="2.5" ry="2.5" style="stroke:#E7E7E7;stroke-width:0.5;" width="305.6377" x="743.83" y="7"/><ellipse cx="836.8022" cy="23" fill="#2E5233" rx="11" ry="11" style="stroke:#E7E7E7;stroke-width:1;"/><path d="M839.7709,28.6406 Q839.1928,28.9375 838.5522,29.0781 Q837.9115,29.2344 837.2084,29.2344 Q834.7084,29.2344 833.3803,27.5938 Q832.0678,25.9375 832.0678,22.8125 Q832.0678,19.6875 833.3803,18.0313 Q834.7084,16.375 837.2084,16.375 Q837.9115,16.375 838.5522,16.5313 Q839.2084,16.6875 839.7709,16.9844 L839.7709,19.7031 Q839.1459,19.125 838.5522,18.8594 Q837.9584,18.5781 837.3334,18.5781 Q835.9897,18.5781 835.3022,19.6563 Q834.6147,20.7188 834.6147,22.8125 Q834.6147,24.9063 835.3022,25.9844 Q835.9897,27.0469 837.3334,27.0469 Q837.9584,27.0469 838.5522,26.7813 Q839.1459,26.5 839.7709,25.9219 L839.7709,28.6406 Z " fill="#FFFFFF"/><text fill="#FFFFFF" font-family="sans-serif" font-size="14" lengthAdjust="spacing" textLength="111.1934" x="857.3022" y="27.8467">AbstractFactory</text><line style="stroke:#E7E7E7;stroke-width:0.5;" x1="744.83" x2="1048.4677" y1="39" y2="39"/><line style="stroke:#E7E7E7;stroke-width:0.5;" x1="744.83" x2="1048.4677" y1="47" y2="47"/><text fill="#FFFFFF" font-family="sans-serif" font-size="14" lengthAdjust="spacing" textLength="127.3467" x="749.83" y="63.9951">createBulb(): Bulb</text><text fill="#FFFFFF" font-family="sans-serif" font-size="14" lengthAdjust="spacing" textLength="170.3447" x="749.83" y="80.292">createFreezer(): Freezer</text><text fill="#FFFFFF" font-family="sans-serif" font-size="14" lengthAdjust="spacing" textLength="205.7686" x="749.83" y="96.5889">createTelevision(): Television</text><text fill="#FFFFFF" font-family="sans-serif" font-size="14" lengthAdjust="spacing" textLength="293.6377" x="749.83" y="112.8857">createWashingMachine(): WashinMachine</text></g><!--class SamsungFactory--><g id="elem_SamsungFactory"><rect codeLine="8" fill="#313139" height="113.1875" id="SamsungFactory" rx="2.5" ry="2.5" style="stroke:#E7E7E7;stroke-width:0.5;" width="575.3018" x="7" y="180.19"/><ellipse cx="231.6733" cy="196.19" fill="#2E5233" rx="11" ry="11" style="stroke:#E7E7E7;stroke-width:1;"/><path d="M234.6421,201.8306 Q234.064,202.1275 233.4233,202.2681 Q232.7827,202.4244 232.0796,202.4244 Q229.5796,202.4244 228.2515,200.7838 Q226.939,199.1275 226.939,196.0025 Q226.939,192.8775 228.2515,191.2213 Q229.5796,189.565 232.0796,189.565 Q232.7827,189.565 233.4233,189.7213 Q234.0796,189.8775 234.6421,190.1744 L234.6421,192.8931 Q234.0171,192.315 233.4233,192.0494 Q232.8296,191.7681 232.2046,191.7681 Q230.8608,191.7681 230.1733,192.8463 Q229.4858,193.9088 229.4858,196.0025 Q229.4858,198.0963 230.1733,199.1744 Q230.8608,200.2369 232.2046,200.2369 Q232.8296,200.2369 233.4233,199.9713 Q234.0171,199.69 234.6421,199.1119 L234.6421,201.8306 Z " fill="#FFFFFF"/><text fill="#FFFFFF" font-family="sans-serif" font-size="14" lengthAdjust="spacing" textLength="117.4551" x="252.1733" y="201.0367">SamsungFactory</text><line style="stroke:#E7E7E7;stroke-width:0.5;" x1="8" x2="581.3018" y1="212.19" y2="212.19"/><line style="stroke:#E7E7E7;stroke-width:0.5;" x1="8" x2="581.3018" y1="220.19" y2="220.19"/><text fill="#FFFFFF" font-family="sans-serif" font-size="14" lengthAdjust="spacing" textLength="298.457" x="13" y="237.1851">createBulb(): Bulb // creates SamsungBulb</text><text fill="#FFFFFF" font-family="sans-serif" font-size="14" lengthAdjust="spacing" textLength="362.9541" x="13" y="253.482">createFreezer(): Freezer // creates SamsungFreezer</text><text fill="#FFFFFF" font-family="sans-serif" font-size="14" lengthAdjust="spacing" textLength="416.0898" x="13" y="269.7789">createTelevision(): Television // creates SamsungTelevision</text><text fill="#FFFFFF" font-family="sans-serif" font-size="14" lengthAdjust="spacing" textLength="563.3018" x="13" y="286.0757">createWashingMachine(): WashingMachine // Creates SamsungWashingMachine</text></g><!--class XiaomiFactory--><g id="elem_XiaomiFactory"><rect codeLine="15" fill="#313139" height="113.1875" id="XiaomiFactory" rx="2.5" ry="2.5" style="stroke:#E7E7E7;stroke-width:0.5;" width="558.4238" x="617.44" y="180.19"/><ellipse cx="842.1133" cy="196.19" fill="#2E5233" rx="11" ry="11" style="stroke:#E7E7E7;stroke-width:1;"/><path d="M845.0821,201.8306 Q844.504,202.1275 843.8633,202.2681 Q843.2227,202.4244 842.5196,202.4244 Q840.0196,202.4244 838.6915,200.7838 Q837.379,199.1275 837.379,196.0025 Q837.379,192.8775 838.6915,191.2213 Q840.0196,189.565 842.5196,189.565 Q843.2227,189.565 843.8633,189.7213 Q844.5196,189.8775 845.0821,190.1744 L845.0821,192.8931 Q844.4571,192.315 843.8633,192.0494 Q843.2696,191.7681 842.6446,191.7681 Q841.3008,191.7681 840.6133,192.8463 Q839.9258,193.9088 839.9258,196.0025 Q839.9258,198.0963 840.6133,199.1744 Q841.3008,200.2369 842.6446,200.2369 Q843.2696,200.2369 843.8633,199.9713 Q844.4571,199.69 845.0821,199.1119 L845.0821,201.8306 Z " fill="#FFFFFF"/><text fill="#FFFFFF" font-family="sans-serif" font-size="14" lengthAdjust="spacing" textLength="100.5771" x="862.6133" y="201.0367">XiaomiFactory</text><line style="stroke:#E7E7E7;stroke-width:0.5;" x1="618.44" x2="1174.8638" y1="212.19" y2="212.19"/><line style="stroke:#E7E7E7;stroke-width:0.5;" x1="618.44" x2="1174.8638" y1="220.19" y2="220.19"/><text fill="#FFFFFF" font-family="sans-serif" font-size="14" lengthAdjust="spacing" textLength="281.5791" x="623.44" y="237.1851">createBulb(): Bulb // creates XiaomiBulb</text><text fill="#FFFFFF" font-family="sans-serif" font-size="14" lengthAdjust="spacing" textLength="346.0762" x="623.44" y="253.482">createFreezer(): Freezer // creates XiaomiFreezer</text><text fill="#FFFFFF" font-family="sans-serif" font-size="14" lengthAdjust="spacing" textLength="399.2119" x="623.44" y="269.7789">createTelevision(): Television // creates XiaomiTelevision</text><text fill="#FFFFFF" font-family="sans-serif" font-size="14" lengthAdjust="spacing" textLength="546.4238" x="623.44" y="286.0757">createWashingMachine(): WashingMachine // Creates XiaomiWashingMachine</text></g><!--class LGFactory--><g id="elem_LGFactory"><rect codeLine="22" fill="#313139" height="113.1875" id="LGFactory" rx="2.5" ry="2.5" style="stroke:#E7E7E7;stroke-width:0.5;" width="528.9199" x="1211.19" y="180.19"/><ellipse cx="1435.8633" cy="196.19" fill="#2E5233" rx="11" ry="11" style="stroke:#E7E7E7;stroke-width:1;"/><path d="M1438.8321,201.8306 Q1438.254,202.1275 1437.6133,202.2681 Q1436.9727,202.4244 1436.2696,202.4244 Q1433.7696,202.4244 1432.4415,200.7838 Q1431.129,199.1275 1431.129,196.0025 Q1431.129,192.8775 1432.4415,191.2213 Q1433.7696,189.565 1436.2696,189.565 Q1436.9727,189.565 1437.6133,189.7213 Q1438.2696,189.8775 1438.8321,190.1744 L1438.8321,192.8931 Q1438.2071,192.315 1437.6133,192.0494 Q1437.0196,191.7681 1436.3946,191.7681 Q1435.0508,191.7681 1434.3633,192.8463 Q1433.6758,193.9088 1433.6758,196.0025 Q1433.6758,198.0963 1434.3633,199.1744 Q1435.0508,200.2369 1436.3946,200.2369 Q1437.0196,200.2369 1437.6133,199.9713 Q1438.2071,199.69 1438.8321,199.1119 L1438.8321,201.8306 Z " fill="#FFFFFF"/><text fill="#FFFFFF" font-family="sans-serif" font-size="14" lengthAdjust="spacing" textLength="71.0732" x="1456.3633" y="201.0367">LGFactory</text><line style="stroke:#E7E7E7;stroke-width:0.5;" x1="1212.19" x2="1739.1099" y1="212.19" y2="212.19"/><line style="stroke:#E7E7E7;stroke-width:0.5;" x1="1212.19" x2="1739.1099" y1="220.19" y2="220.19"/><text fill="#FFFFFF" font-family="sans-serif" font-size="14" lengthAdjust="spacing" textLength="252.0752" x="1217.19" y="237.1851">createBulb(): Bulb // creates LGBulb</text><text fill="#FFFFFF" font-family="sans-serif" font-size="14" lengthAdjust="spacing" textLength="316.5723" x="1217.19" y="253.482">createFreezer(): Freezer // creates LGFreezer</text><text fill="#FFFFFF" font-family="sans-serif" font-size="14" lengthAdjust="spacing" textLength="369.708" x="1217.19" y="269.7789">createTelevision(): Television // creates LGTelevision</text><text fill="#FFFFFF" font-family="sans-serif" font-size="14" lengthAdjust="spacing" textLength="516.9199" x="1217.19" y="286.0757">createWashingMachine(): WashingMachine // Creates LGWashingMachine</text></g><!--reverse link AbstractFactory to SamsungFactory--><g id="link_AbstractFactory_SamsungFactory"><path d="M726.2565,113.0538 C649.7065,134.8238 573.49,156.49 491.65,179.77 " fill="transparent" id="AbstractFactory-backto-SamsungFactory" style="stroke:#E7E7E7;stroke-width:1;"/><polygon fill="transparent" points="743.57,108.13,724.6153,107.2826,727.8978,118.8249,743.57,108.13" style="stroke:#E7E7E7;stroke-width:1;"/></g><!--reverse link AbstractFactory to XiaomiFactory--><g id="link_AbstractFactory_XiaomiFactory"><path d="M896.65,138.65 C896.65,157.67 896.65,160.9 896.65,179.9 " fill="transparent" id="AbstractFactory-backto-XiaomiFactory" style="stroke:#E7E7E7;stroke-width:1;"/><polygon fill="transparent" points="896.65,120.65,890.65,138.65,902.65,138.65,896.65,120.65" style="stroke:#E7E7E7;stroke-width:1;"/></g><!--reverse link AbstractFactory to LGFactory--><g id="link_AbstractFactory_LGFactory"><path d="M1067.1714,115.0134 C1139.6214,136.4334 1209.56,157.11 1286.12,179.75 " fill="transparent" id="AbstractFactory-backto-LGFactory" style="stroke:#E7E7E7;stroke-width:1;"/><polygon fill="transparent" points="1049.91,109.91,1065.4703,120.7672,1068.8725,109.2596,1049.91,109.91" style="stroke:#E7E7E7;stroke-width:1;"/></g><!--SRC=[fP0z3y8W48PtVWMZJjtTrAGiE6bILugNIjBI1AZn8_vtYu1DJJKq3EJWFUwzkuVNJ6kyBhLHZ9kyFwswFH3c2fY1JLUNY-KAsnYqN07SGLdPNqFc03LSX1QjjCdX5V85qsSXgntZVG3xnobUG4-4-7kSFMjq9oi_3OQh0NcAcn9dcLS_Dl-7doY8N6kYCdxde5YJxTXa_66WSXIiRKGg5ESIpyHtdO_45QOHSHw_W52I2eEIU11zj_aGA4a3GCdtyYy0]--></g></svg>