<svg xmlns="http://www.w3.org/2000/svg" xmlns:xlink="http://www.w3.org/1999/xlink" contentStyleType="text/css" data-diagram-type="CLASS" height="408px" preserveAspectRatio="none" style="width:1262px;height:408px;background:#1B1B1B;" version="1.1" viewBox="0 0 1262 408" width="1262px" zoomAndPan="magnify"><defs/><g><rect fill="#1B1B1B" height="408" style="stroke:transparent;stroke-width:1;" width="1262" x="0" y="0"/><!--class Client--><g id="elem_Client"><rect codeLine="1" fill="#313139" height="96.8906" id="Client" rx="2.5" ry="2.5" style="stroke:#E7E7E7;stroke-width:0.5;" width="422.252" x="7" y="7"/><ellipse cx="193.6108" cy="23" fill="#2E5233" rx="11" ry="11" style="stroke:#E7E7E7;stroke-width:1;"/><path d="M196.5796,28.6406 Q196.0015,28.9375 195.3608,29.0781 Q194.7202,29.2344 194.0171,29.2344 Q191.5171,29.2344 190.189,27.5938 Q188.8765,25.9375 188.8765,22.8125 Q188.8765,19.6875 190.189,18.0313 Q191.5171,16.375 194.0171,16.375 Q194.7202,16.375 195.3608,16.5313 Q196.0171,16.6875 196.5796,16.9844 L196.5796,19.7031 Q195.9546,19.125 195.3608,18.8594 Q194.7671,18.5781 194.1421,18.5781 Q192.7983,18.5781 192.1108,19.6563 Q191.4233,20.7188 191.4233,22.8125 Q191.4233,24.9063 192.1108,25.9844 Q192.7983,27.0469 194.1421,27.0469 Q194.7671,27.0469 195.3608,26.7813 Q195.9546,26.5 196.5796,25.9219 L196.5796,28.6406 Z " fill="#FFFFFF"/><text fill="#FFFFFF" font-family="sans-serif" font-size="14" lengthAdjust="spacing" textLength="40.5303" x="214.1108" y="27.8467">Client</text><line style="stroke:#E7E7E7;stroke-width:0.5;" x1="8" x2="428.252" y1="39" y2="39"/><text fill="#FFFFFF" font-family="sans-serif" font-size="14" lengthAdjust="spacing" textLength="119.7451" x="13" y="55.9951">adapter: Adapter</text><line style="stroke:#E7E7E7;stroke-width:0.5;" x1="8" x2="428.252" y1="63.2969" y2="63.2969"/><text fill="#FFFFFF" font-family="sans-serif" font-size="14" lengthAdjust="spacing" textLength="388.2266" x="13" y="80.292">adapter.processPayment(100); // transaction Id is 1234</text><text fill="#FFFFFF" font-family="sans-serif" font-size="14" lengthAdjust="spacing" textLength="410.252" x="13" y="96.5889">adaptercheckPaymentStatus("1234") // transaction details</text></g><!--class Adapter--><g id="elem_Adapter"><rect codeLine="10" fill="#313139" height="80.5938" id="Adapter" rx="2.5" ry="2.5" style="stroke:#E7E7E7;stroke-width:0.5;" width="378.4404" x="463.91" y="15.15"/><ellipse cx="620.9862" cy="31.15" fill="#352866" rx="11" ry="11" style="stroke:#E7E7E7;stroke-width:1;"/><path d="M616.908,26.9156 L616.908,24.7594 L624.2987,24.7594 L624.2987,26.9156 L621.8299,26.9156 L621.8299,34.9937 L624.2987,34.9937 L624.2987,37.15 L616.908,37.15 L616.908,34.9937 L619.3768,34.9937 L619.3768,26.9156 L616.908,26.9156 Z " fill="#FFFFFF"/><text fill="#FFFFFF" font-family="sans-serif" font-size="14" font-style="italic" lengthAdjust="spacing" textLength="55.7881" x="641.4862" y="35.9967">Adapter</text><line style="stroke:#E7E7E7;stroke-width:0.5;" x1="464.91" x2="841.3504" y1="47.15" y2="47.15"/><line style="stroke:#E7E7E7;stroke-width:0.5;" x1="464.91" x2="841.3504" y1="55.15" y2="55.15"/><ellipse cx="474.91" cy="68.7984" fill="#84BE84" rx="3" ry="3" style="stroke:#038048;stroke-width:1;"/><text fill="#FFFFFF" font-family="sans-serif" font-size="14" lengthAdjust="spacing" textLength="302.9893" x="483.91" y="72.1451">processPayment(amount: double): boolean</text><ellipse cx="474.91" cy="85.0953" fill="#84BE84" rx="3" ry="3" style="stroke:#038048;stroke-width:1;"/><text fill="#FFFFFF" font-family="sans-serif" font-size="14" lengthAdjust="spacing" textLength="352.4404" x="483.91" y="88.442">checkPaymentStatus(transactionId: String): String</text></g><!--class SBIAdapter--><g id="elem_SBIAdapter"><rect codeLine="15" fill="#313139" height="96.8906" id="SBIAdapter" rx="2.5" ry="2.5" style="stroke:#E7E7E7;stroke-width:0.5;" width="378.4404" x="50.91" y="163.9"/><ellipse cx="196.6761" cy="179.9" fill="#2E5233" rx="11" ry="11" style="stroke:#E7E7E7;stroke-width:1;"/><path d="M199.6449,185.5406 Q199.0667,185.8375 198.4261,185.9781 Q197.7855,186.1344 197.0824,186.1344 Q194.5824,186.1344 193.2542,184.4938 Q191.9417,182.8375 191.9417,179.7125 Q191.9417,176.5875 193.2542,174.9313 Q194.5824,173.275 197.0824,173.275 Q197.7855,173.275 198.4261,173.4313 Q199.0824,173.5875 199.6449,173.8844 L199.6449,176.6031 Q199.0199,176.025 198.4261,175.7594 Q197.8324,175.4781 197.2074,175.4781 Q195.8636,175.4781 195.1761,176.5563 Q194.4886,177.6188 194.4886,179.7125 Q194.4886,181.8063 195.1761,182.8844 Q195.8636,183.9469 197.2074,183.9469 Q197.8324,183.9469 198.4261,183.6813 Q199.0199,183.4 199.6449,182.8219 L199.6449,185.5406 Z " fill="#FFFFFF"/><text fill="#FFFFFF" font-family="sans-serif" font-size="14" lengthAdjust="spacing" textLength="78.4082" x="217.1761" y="184.7467">SBIAdapter</text><line style="stroke:#E7E7E7;stroke-width:0.5;" x1="51.91" x2="428.3504" y1="195.9" y2="195.9"/><rect fill="transparent" height="6" style="stroke:#C82930;stroke-width:1;" width="6" x="58.91" y="206.5484"/><text fill="#FFFFFF" font-family="sans-serif" font-size="14" lengthAdjust="spacing" textLength="219.9941" x="70.91" y="212.8951">sbiPaymentAPI: SBIPaymentAPI</text><line style="stroke:#E7E7E7;stroke-width:0.5;" x1="51.91" x2="428.3504" y1="220.1969" y2="220.1969"/><ellipse cx="61.91" cy="233.8453" fill="#84BE84" rx="3" ry="3" style="stroke:#038048;stroke-width:1;"/><text fill="#FFFFFF" font-family="sans-serif" font-size="14" lengthAdjust="spacing" textLength="302.9893" x="70.91" y="237.192">processPayment(amount: double): boolean</text><ellipse cx="61.91" cy="250.1422" fill="#84BE84" rx="3" ry="3" style="stroke:#038048;stroke-width:1;"/><text fill="#FFFFFF" font-family="sans-serif" font-size="14" lengthAdjust="spacing" textLength="352.4404" x="70.91" y="253.4889">checkPaymentStatus(transactionId: String): String</text></g><!--class ICICIAdapter--><g id="elem_ICICIAdapter"><rect codeLine="21" fill="#313139" height="96.8906" id="ICICIAdapter" rx="2.5" ry="2.5" style="stroke:#E7E7E7;stroke-width:0.5;" width="378.4404" x="463.91" y="163.9"/><ellipse cx="605.0174" cy="179.9" fill="#2E5233" rx="11" ry="11" style="stroke:#E7E7E7;stroke-width:1;"/><path d="M607.9862,185.5406 Q607.408,185.8375 606.7674,185.9781 Q606.1268,186.1344 605.4237,186.1344 Q602.9237,186.1344 601.5955,184.4938 Q600.283,182.8375 600.283,179.7125 Q600.283,176.5875 601.5955,174.9313 Q602.9237,173.275 605.4237,173.275 Q606.1268,173.275 606.7674,173.4313 Q607.4237,173.5875 607.9862,173.8844 L607.9862,176.6031 Q607.3612,176.025 606.7674,175.7594 Q606.1737,175.4781 605.5487,175.4781 Q604.2049,175.4781 603.5174,176.5563 Q602.8299,177.6188 602.8299,179.7125 Q602.8299,181.8063 603.5174,182.8844 Q604.2049,183.9469 605.5487,183.9469 Q606.1737,183.9469 606.7674,183.6813 Q607.3612,183.4 607.9862,182.8219 L607.9862,185.5406 Z " fill="#FFFFFF"/><text fill="#FFFFFF" font-family="sans-serif" font-size="14" lengthAdjust="spacing" textLength="87.7256" x="625.5174" y="184.7467">ICICIAdapter</text><line style="stroke:#E7E7E7;stroke-width:0.5;" x1="464.91" x2="841.3504" y1="195.9" y2="195.9"/><rect fill="transparent" height="6" style="stroke:#C82930;stroke-width:1;" width="6" x="471.91" y="206.5484"/><text fill="#FFFFFF" font-family="sans-serif" font-size="14" lengthAdjust="spacing" textLength="236.3047" x="483.91" y="212.8951">iciciPaymentAPI: ICICIPaymentAPI</text><line style="stroke:#E7E7E7;stroke-width:0.5;" x1="464.91" x2="841.3504" y1="220.1969" y2="220.1969"/><ellipse cx="474.91" cy="233.8453" fill="#84BE84" rx="3" ry="3" style="stroke:#038048;stroke-width:1;"/><text fill="#FFFFFF" font-family="sans-serif" font-size="14" lengthAdjust="spacing" textLength="302.9893" x="483.91" y="237.192">processPayment(amount: double): boolean</text><ellipse cx="474.91" cy="250.1422" fill="#84BE84" rx="3" ry="3" style="stroke:#038048;stroke-width:1;"/><text fill="#FFFFFF" font-family="sans-serif" font-size="14" lengthAdjust="spacing" textLength="352.4404" x="483.91" y="253.4889">checkPaymentStatus(transactionId: String): String</text></g><!--class KotakAdapter--><g id="elem_KotakAdapter"><rect codeLine="27" fill="#313139" height="96.8906" id="KotakAdapter" rx="2.5" ry="2.5" style="stroke:#E7E7E7;stroke-width:0.5;" width="378.4404" x="876.91" y="163.9"/><ellipse cx="1014.0252" cy="179.9" fill="#2E5233" rx="11" ry="11" style="stroke:#E7E7E7;stroke-width:1;"/><path d="M1016.994,185.5406 Q1016.4159,185.8375 1015.7752,185.9781 Q1015.1346,186.1344 1014.4315,186.1344 Q1011.9315,186.1344 1010.6034,184.4938 Q1009.2909,182.8375 1009.2909,179.7125 Q1009.2909,176.5875 1010.6034,174.9313 Q1011.9315,173.275 1014.4315,173.275 Q1015.1346,173.275 1015.7752,173.4313 Q1016.4315,173.5875 1016.994,173.8844 L1016.994,176.6031 Q1016.369,176.025 1015.7752,175.7594 Q1015.1815,175.4781 1014.5565,175.4781 Q1013.2127,175.4781 1012.5252,176.5563 Q1011.8377,177.6188 1011.8377,179.7125 Q1011.8377,181.8063 1012.5252,182.8844 Q1013.2127,183.9469 1014.5565,183.9469 Q1015.1815,183.9469 1015.7752,183.6813 Q1016.369,183.4 1016.994,182.8219 L1016.994,185.5406 Z " fill="#FFFFFF"/><text fill="#FFFFFF" font-family="sans-serif" font-size="14" lengthAdjust="spacing" textLength="95.71" x="1034.5252" y="184.7467">KotakAdapter</text><line style="stroke:#E7E7E7;stroke-width:0.5;" x1="877.91" x2="1254.3504" y1="195.9" y2="195.9"/><rect fill="transparent" height="6" style="stroke:#C82930;stroke-width:1;" width="6" x="884.91" y="206.5484"/><text fill="#FFFFFF" font-family="sans-serif" font-size="14" lengthAdjust="spacing" textLength="256.0742" x="896.91" y="212.8951">kotakPaymentAPI: KotakPaymentAPI</text><line style="stroke:#E7E7E7;stroke-width:0.5;" x1="877.91" x2="1254.3504" y1="220.1969" y2="220.1969"/><ellipse cx="887.91" cy="233.8453" fill="#84BE84" rx="3" ry="3" style="stroke:#038048;stroke-width:1;"/><text fill="#FFFFFF" font-family="sans-serif" font-size="14" lengthAdjust="spacing" textLength="302.9893" x="896.91" y="237.192">processPayment(amount: double): boolean</text><ellipse cx="887.91" cy="250.1422" fill="#84BE84" rx="3" ry="3" style="stroke:#038048;stroke-width:1;"/><text fill="#FFFFFF" font-family="sans-serif" font-size="14" lengthAdjust="spacing" textLength="352.4404" x="896.91" y="253.4889">checkPaymentStatus(transactionId: String): String</text></g><!--class SBIPaymentAPI--><g id="elem_SBIPaymentAPI"><rect codeLine="33" fill="#313139" height="80.5938" id="SBIPaymentAPI" rx="2.5" ry="2.5" style="stroke:#E7E7E7;stroke-width:0.5;" width="366.6689" x="56.79" y="320.79"/><ellipse cx="182.5302" cy="336.79" fill="#2E5233" rx="11" ry="11" style="stroke:#E7E7E7;stroke-width:1;"/><path d="M185.499,342.4306 Q184.9209,342.7275 184.2802,342.8681 Q183.6396,343.0244 182.9365,343.0244 Q180.4365,343.0244 179.1084,341.3837 Q177.7959,339.7275 177.7959,336.6025 Q177.7959,333.4775 179.1084,331.8212 Q180.4365,330.165 182.9365,330.165 Q183.6396,330.165 184.2802,330.3212 Q184.9365,330.4775 185.499,330.7744 L185.499,333.4931 Q184.874,332.915 184.2802,332.6494 Q183.6865,332.3681 183.0615,332.3681 Q181.7177,332.3681 181.0302,333.4462 Q180.3427,334.5087 180.3427,336.6025 Q180.3427,338.6962 181.0302,339.7744 Q181.7177,340.8369 183.0615,340.8369 Q183.6865,340.8369 184.2802,340.5712 Q184.874,340.29 185.499,339.7119 L185.499,342.4306 Z " fill="#FFFFFF"/><text fill="#FFFFFF" font-family="sans-serif" font-size="14" lengthAdjust="spacing" textLength="106.6885" x="203.0302" y="341.6367">SBIPaymentAPI</text><line style="stroke:#E7E7E7;stroke-width:0.5;" x1="57.79" x2="422.4589" y1="352.79" y2="352.79"/><line style="stroke:#E7E7E7;stroke-width:0.5;" x1="57.79" x2="422.4589" y1="360.79" y2="360.79"/><text fill="#FFFFFF" font-family="sans-serif" font-size="14" lengthAdjust="spacing" textLength="261.5088" x="62.79" y="377.7851">makePayment(amt: double): boolean</text><text fill="#FFFFFF" font-family="sans-serif" font-size="14" lengthAdjust="spacing" textLength="354.6689" x="62.79" y="394.082">getTransactionStatus(transactionId: String): String</text></g><!--class KotakPaymentAPI--><g id="elem_KotakPaymentAPI"><rect codeLine="38" fill="#313139" height="80.5938" id="KotakPaymentAPI" rx="2.5" ry="2.5" style="stroke:#E7E7E7;stroke-width:0.5;" width="299.9844" x="916.13" y="320.79"/><ellipse cx="999.8771" cy="336.79" fill="#2E5233" rx="11" ry="11" style="stroke:#E7E7E7;stroke-width:1;"/><path d="M1002.8458,342.4306 Q1002.2677,342.7275 1001.6271,342.8681 Q1000.9864,343.0244 1000.2833,343.0244 Q997.7833,343.0244 996.4552,341.3837 Q995.1427,339.7275 995.1427,336.6025 Q995.1427,333.4775 996.4552,331.8212 Q997.7833,330.165 1000.2833,330.165 Q1000.9864,330.165 1001.6271,330.3212 Q1002.2833,330.4775 1002.8458,330.7744 L1002.8458,333.4931 Q1002.2208,332.915 1001.6271,332.6494 Q1001.0333,332.3681 1000.4083,332.3681 Q999.0646,332.3681 998.3771,333.4462 Q997.6896,334.5087 997.6896,336.6025 Q997.6896,338.6962 998.3771,339.7744 Q999.0646,340.8369 1000.4083,340.8369 Q1001.0333,340.8369 1001.6271,340.5712 Q1002.2208,340.29 1002.8458,339.7119 L1002.8458,342.4306 Z " fill="#FFFFFF"/><text fill="#FFFFFF" font-family="sans-serif" font-size="14" lengthAdjust="spacing" textLength="123.9902" x="1020.3771" y="341.6367">KotakPaymentAPI</text><line style="stroke:#E7E7E7;stroke-width:0.5;" x1="917.13" x2="1215.1144" y1="352.79" y2="352.79"/><line style="stroke:#E7E7E7;stroke-width:0.5;" x1="917.13" x2="1215.1144" y1="360.79" y2="360.79"/><text fill="#FFFFFF" font-family="sans-serif" font-size="14" lengthAdjust="spacing" textLength="287.9844" x="922.13" y="377.7851">initiateTransfer(money: double): boolean</text><text fill="#FFFFFF" font-family="sans-serif" font-size="14" lengthAdjust="spacing" textLength="205.8369" x="922.13" y="394.082">trackStatus(id: String): String</text></g><!--class ICICIPaymentAPI--><g id="elem_ICICIPaymentAPI"><rect codeLine="43" fill="#313139" height="80.5938" id="ICICIPaymentAPI" rx="2.5" ry="2.5" style="stroke:#E7E7E7;stroke-width:0.5;" width="335.2168" x="485.52" y="320.79"/><ellipse cx="590.8755" cy="336.79" fill="#2E5233" rx="11" ry="11" style="stroke:#E7E7E7;stroke-width:1;"/><path d="M593.8442,342.4306 Q593.2661,342.7275 592.6255,342.8681 Q591.9848,343.0244 591.2817,343.0244 Q588.7817,343.0244 587.4536,341.3837 Q586.1411,339.7275 586.1411,336.6025 Q586.1411,333.4775 587.4536,331.8212 Q588.7817,330.165 591.2817,330.165 Q591.9848,330.165 592.6255,330.3212 Q593.2817,330.4775 593.8442,330.7744 L593.8442,333.4931 Q593.2192,332.915 592.6255,332.6494 Q592.0317,332.3681 591.4067,332.3681 Q590.063,332.3681 589.3755,333.4462 Q588.688,334.5087 588.688,336.6025 Q588.688,338.6962 589.3755,339.7744 Q590.063,340.8369 591.4067,340.8369 Q592.0317,340.8369 592.6255,340.5712 Q593.2192,340.29 593.8442,339.7119 L593.8442,342.4306 Z " fill="#FFFFFF"/><text fill="#FFFFFF" font-family="sans-serif" font-size="14" lengthAdjust="spacing" textLength="116.0059" x="611.3755" y="341.6367">ICICIPaymentAPI</text><line style="stroke:#E7E7E7;stroke-width:0.5;" x1="486.52" x2="819.7368" y1="352.79" y2="352.79"/><line style="stroke:#E7E7E7;stroke-width:0.5;" x1="486.52" x2="819.7368" y1="360.79" y2="360.79"/><text fill="#FFFFFF" font-family="sans-serif" font-size="14" lengthAdjust="spacing" textLength="323.2168" x="491.52" y="377.7851">processTransaction(amount: double): boolean</text><text fill="#FFFFFF" font-family="sans-serif" font-size="14" lengthAdjust="spacing" textLength="289.9463" x="491.52" y="394.082">queryStatus(transactionId: String): String</text></g><!--link Client to Adapter--><g id="link_Client_Adapter"><path codeLine="8" d="M429.68,55.45 C441.03,55.45 446.37,55.45 457.72,55.45 " fill="transparent" id="Client-to-Adapter" style="stroke:#E7E7E7;stroke-width:1;stroke-dasharray:7.0,7.0;"/><polygon fill="#E7E7E7" points="463.72,55.45,454.72,51.45,458.72,55.45,454.72,59.45,463.72,55.45" style="stroke:#E7E7E7;stroke-width:1;"/></g><!--reverse link Adapter to SBIAdapter--><g id="link_Adapter_SBIAdapter"><path d="M530.1857,102.5592 C475.4557,123.0792 425.14,141.95 367.6,163.53 " fill="transparent" id="Adapter-backto-SBIAdapter" style="stroke:#E7E7E7;stroke-width:1;stroke-dasharray:7.0,7.0;"/><polygon fill="transparent" points="547.04,96.24,528.0793,96.9411,532.2921,108.1773,547.04,96.24" style="stroke:#E7E7E7;stroke-width:1;"/></g><!--reverse link Adapter to ICICIAdapter--><g id="link_Adapter_ICICIAdapter"><path d="M653.13,113.94 C653.13,134.55 653.13,141.93 653.13,163.64 " fill="transparent" id="Adapter-backto-ICICIAdapter" style="stroke:#E7E7E7;stroke-width:1;stroke-dasharray:7.0,7.0;"/><polygon fill="transparent" points="653.13,95.94,647.13,113.94,659.13,113.94,653.13,95.94" style="stroke:#E7E7E7;stroke-width:1;"/></g><!--reverse link Adapter to KotakAdapter--><g id="link_Adapter_KotakAdapter"><path d="M776.0743,102.5592 C830.8043,123.0792 881.12,141.95 938.65,163.53 " fill="transparent" id="Adapter-backto-KotakAdapter" style="stroke:#E7E7E7;stroke-width:1;stroke-dasharray:7.0,7.0;"/><polygon fill="transparent" points="759.22,96.24,773.9679,108.1773,778.1807,96.9411,759.22,96.24" style="stroke:#E7E7E7;stroke-width:1;"/></g><!--reverse link SBIAdapter to SBIPaymentAPI--><g id="link_SBIAdapter_SBIPaymentAPI"><path codeLine="48" d="M240.13,272.98 C240.13,292.23 240.13,302.18 240.13,320.53 " fill="transparent" id="SBIAdapter-backto-SBIPaymentAPI" style="stroke:#E7E7E7;stroke-width:1;"/><polygon fill="transparent" points="240.13,260.98,236.13,266.98,240.13,272.98,244.13,266.98,240.13,260.98" style="stroke:#E7E7E7;stroke-width:1;"/></g><!--reverse link KotakAdapter to KotakPaymentAPI--><g id="link_KotakAdapter_KotakPaymentAPI"><path codeLine="49" d="M1066.13,272.98 C1066.13,292.23 1066.13,302.18 1066.13,320.53 " fill="transparent" id="KotakAdapter-backto-KotakPaymentAPI" style="stroke:#E7E7E7;stroke-width:1;"/><polygon fill="transparent" points="1066.13,260.98,1062.13,266.98,1066.13,272.98,1070.13,266.98,1066.13,260.98" style="stroke:#E7E7E7;stroke-width:1;"/></g><!--reverse link ICICIAdapter to ICICIPaymentAPI--><g id="link_ICICIAdapter_ICICIPaymentAPI"><path codeLine="50" d="M653.13,272.98 C653.13,292.23 653.13,302.18 653.13,320.53 " fill="transparent" id="ICICIAdapter-backto-ICICIPaymentAPI" style="stroke:#E7E7E7;stroke-width:1;"/><polygon fill="transparent" points="653.13,260.98,649.13,266.98,653.13,272.98,657.13,266.98,653.13,260.98" style="stroke:#E7E7E7;stroke-width:1;"/></g><!--SRC=[nPDDRy8m38Rl_HKMfrOJNzjEdJI9SQgu8B4_O5B3hBO9Qzm3clRVbq2X7q9Zui2KGnFtjT-dhgDoj1RcEPEMhm0mnPrG6SFik0dW71ljIgF8sYNk2oSEfvD9z0BZCKY9sg8IDXgI5DZ2zF7f-PodFaXbTT9AK2eR3hnW4FMJKnBat0RVGN04Wj7h6IHWxHuRL7GAETm7w45XOIejCQIcMkSKnR0s9YVKNde1fEMUf36if6IzZKuR3w8E_Lcz9RKfSB7BoPUmBOuXs3NNfMVB9FO9pV5-dCdShIkahDnginwI_eDsOGIpAxIPrxHf5zt0NMUWiNLi1MRKM5xqsvAyDzLlwKx7aJKBez2XveRAi32QzfUCdOVAQZ- -EZ0TaxgPBUvV6lfPKRd_ytUrRf4P3djtf3CC_dN_HtTcsmjwx3y0]--></g></svg>