<svg xmlns="http://www.w3.org/2000/svg" xmlns:xlink="http://www.w3.org/1999/xlink" contentStyleType="text/css" data-diagram-type="CLASS" height="332px" preserveAspectRatio="none" style="width:724px;height:332px;background:#1B1B1B;" version="1.1" viewBox="0 0 724 332" width="724px" zoomAndPan="magnify"><defs/><g><rect fill="#1B1B1B" height="332" style="stroke:none;stroke-width:1;" width="724" x="0" y="0"/><!--class Builder--><g id="elem_Builder"><rect codeLine="1" fill="#313139" height="113.1875" id="Builder" rx="2.5" ry="2.5" style="stroke:#E7E7E7;stroke-width:0.5;" width="121.6621" x="420.42" y="7"/><ellipse cx="453.4872" cy="23" fill="#352866" rx="11" ry="11" style="stroke:#E7E7E7;stroke-width:1;"/><path d="M449.4091,18.7656 L449.4091,16.6094 L456.7997,16.6094 L456.7997,18.7656 L454.331,18.7656 L454.331,26.8438 L456.7997,26.8438 L456.7997,29 L449.4091,29 L449.4091,26.8438 L451.8779,26.8438 L451.8779,18.7656 L449.4091,18.7656 Z " fill="#FFFFFF"/><text fill="#FFFFFF" font-family="sans-serif" font-size="14" font-style="italic" lengthAdjust="spacing" textLength="49.5127" x="471.5022" y="27.8467">Builder</text><line style="stroke:#E7E7E7;stroke-width:0.5;" x1="421.42" x2="541.0821" y1="39" y2="39"/><line style="stroke:#E7E7E7;stroke-width:0.5;" x1="421.42" x2="541.0821" y1="47" y2="47"/><text fill="#FFFFFF" font-family="sans-serif" font-size="14" lengthAdjust="spacing" textLength="46.6895" x="426.42" y="63.9951">reset()</text><text fill="#FFFFFF" font-family="sans-serif" font-size="14" lengthAdjust="spacing" textLength="109.4639" x="426.42" y="80.292">stepA(): Builder</text><text fill="#FFFFFF" font-family="sans-serif" font-size="14" lengthAdjust="spacing" textLength="109.4912" x="426.42" y="96.5889">stepB(): Builder</text><text fill="#FFFFFF" font-family="sans-serif" font-size="14" lengthAdjust="spacing" textLength="109.6621" x="426.42" y="112.8857">stepC(): Builder</text></g><!--class ConcreteBuilder1--><g id="elem_ConcreteBuilder1"><rect codeLine="8" fill="#313139" height="145.7813" id="ConcreteBuilder1" rx="2.5" ry="2.5" style="stroke:#E7E7E7;stroke-width:0.5;" width="171.4072" x="340.55" y="180.19"/><ellipse cx="363.472" cy="196.19" fill="#2E5233" rx="11" ry="11" style="stroke:#E7E7E7;stroke-width:1;"/><path d="M366.4408,201.8306 Q365.8626,202.1275 365.222,202.2681 Q364.5814,202.4244 363.8783,202.4244 Q361.3783,202.4244 360.0501,200.7838 Q358.7376,199.1275 358.7376,196.0025 Q358.7376,192.8775 360.0501,191.2213 Q361.3783,189.565 363.8783,189.565 Q364.5814,189.565 365.222,189.7213 Q365.8783,189.8775 366.4408,190.1744 L366.4408,192.8931 Q365.8158,192.315 365.222,192.0494 Q364.6283,191.7681 364.0033,191.7681 Q362.6595,191.7681 361.972,192.8463 Q361.2845,193.9088 361.2845,196.0025 Q361.2845,198.0963 361.972,199.1744 Q362.6595,200.2369 364.0033,200.2369 Q364.6283,200.2369 365.222,199.9713 Q365.8158,199.69 366.4408,199.1119 L366.4408,201.8306 Z " fill="#FFFFFF"/><text fill="#FFFFFF" font-family="sans-serif" font-size="14" lengthAdjust="spacing" textLength="121.8027" x="379.2325" y="201.0367">ConcreteBuilder1</text><line style="stroke:#E7E7E7;stroke-width:0.5;" x1="341.55" x2="510.9572" y1="212.19" y2="212.19"/><text fill="#FFFFFF" font-family="sans-serif" font-size="14" lengthAdjust="spacing" textLength="125.9385" x="346.55" y="229.1851">product: Product1</text><line style="stroke:#E7E7E7;stroke-width:0.5;" x1="341.55" x2="510.9572" y1="236.4869" y2="236.4869"/><text fill="#FFFFFF" font-family="sans-serif" font-size="14" lengthAdjust="spacing" textLength="85.4834" x="346.55" y="253.482">reset(): void</text><text fill="#FFFFFF" font-family="sans-serif" font-size="14" lengthAdjust="spacing" textLength="109.4639" x="346.55" y="269.7789">stepA(): Builder</text><text fill="#FFFFFF" font-family="sans-serif" font-size="14" lengthAdjust="spacing" textLength="109.4912" x="346.55" y="286.0757">stepB(): Builder</text><text fill="#FFFFFF" font-family="sans-serif" font-size="14" lengthAdjust="spacing" textLength="109.6621" x="346.55" y="302.3726">stepC(): Builder</text><text fill="#FFFFFF" font-family="sans-serif" font-size="14" lengthAdjust="spacing" textLength="159.4072" x="346.55" y="318.6695">getProduct(): Product1</text></g><!--class ConcreteBuilder2--><g id="elem_ConcreteBuilder2"><rect codeLine="17" fill="#313139" height="145.7813" id="ConcreteBuilder2" rx="2.5" ry="2.5" style="stroke:#E7E7E7;stroke-width:0.5;" width="171.4072" x="546.55" y="180.19"/><ellipse cx="569.472" cy="196.19" fill="#2E5233" rx="11" ry="11" style="stroke:#E7E7E7;stroke-width:1;"/><path d="M572.4408,201.8306 Q571.8626,202.1275 571.222,202.2681 Q570.5814,202.4244 569.8783,202.4244 Q567.3783,202.4244 566.0501,200.7838 Q564.7376,199.1275 564.7376,196.0025 Q564.7376,192.8775 566.0501,191.2213 Q567.3783,189.565 569.8783,189.565 Q570.5814,189.565 571.222,189.7213 Q571.8783,189.8775 572.4408,190.1744 L572.4408,192.8931 Q571.8158,192.315 571.222,192.0494 Q570.6283,191.7681 570.0033,191.7681 Q568.6595,191.7681 567.972,192.8463 Q567.2845,193.9088 567.2845,196.0025 Q567.2845,198.0963 567.972,199.1744 Q568.6595,200.2369 570.0033,200.2369 Q570.6283,200.2369 571.222,199.9713 Q571.8158,199.69 572.4408,199.1119 L572.4408,201.8306 Z " fill="#FFFFFF"/><text fill="#FFFFFF" font-family="sans-serif" font-size="14" lengthAdjust="spacing" textLength="121.8027" x="585.2325" y="201.0367">ConcreteBuilder2</text><line style="stroke:#E7E7E7;stroke-width:0.5;" x1="547.55" x2="716.9572" y1="212.19" y2="212.19"/><text fill="#FFFFFF" font-family="sans-serif" font-size="14" lengthAdjust="spacing" textLength="125.9385" x="552.55" y="229.1851">product: Product2</text><line style="stroke:#E7E7E7;stroke-width:0.5;" x1="547.55" x2="716.9572" y1="236.4869" y2="236.4869"/><text fill="#FFFFFF" font-family="sans-serif" font-size="14" lengthAdjust="spacing" textLength="85.4834" x="552.55" y="253.482">reset(): void</text><text fill="#FFFFFF" font-family="sans-serif" font-size="14" lengthAdjust="spacing" textLength="109.4639" x="552.55" y="269.7789">stepA(): Builder</text><text fill="#FFFFFF" font-family="sans-serif" font-size="14" lengthAdjust="spacing" textLength="109.4912" x="552.55" y="286.0757">stepB(): Builder</text><text fill="#FFFFFF" font-family="sans-serif" font-size="14" lengthAdjust="spacing" textLength="109.6621" x="552.55" y="302.3726">stepC(): Builder</text><text fill="#FFFFFF" font-family="sans-serif" font-size="14" lengthAdjust="spacing" textLength="159.4072" x="552.55" y="318.6695">getProduct(): Product2</text></g><!--class Director--><g id="elem_Director"><rect codeLine="26" fill="#313139" height="80.5938" id="Director" rx="2.5" ry="2.5" style="stroke:#E7E7E7;stroke-width:0.5;" width="217.7207" x="87.39" y="212.78"/><ellipse cx="163.7269" cy="228.78" fill="#2E5233" rx="11" ry="11" style="stroke:#E7E7E7;stroke-width:1;"/><path d="M166.6957,234.4206 Q166.1175,234.7175 165.4769,234.8581 Q164.8363,235.0144 164.1332,235.0144 Q161.6332,235.0144 160.305,233.3738 Q158.9925,231.7175 158.9925,228.5925 Q158.9925,225.4675 160.305,223.8113 Q161.6332,222.155 164.1332,222.155 Q164.8363,222.155 165.4769,222.3113 Q166.1332,222.4675 166.6957,222.7644 L166.6957,225.4831 Q166.0707,224.905 165.4769,224.6394 Q164.8832,224.3581 164.2582,224.3581 Q162.9144,224.3581 162.2269,225.4363 Q161.5394,226.4988 161.5394,228.5925 Q161.5394,230.6863 162.2269,231.7644 Q162.9144,232.8269 164.2582,232.8269 Q164.8832,232.8269 165.4769,232.5613 Q166.0707,232.28 166.6957,231.7019 L166.6957,234.4206 Z " fill="#FFFFFF"/><text fill="#FFFFFF" font-family="sans-serif" font-size="14" lengthAdjust="spacing" textLength="56.5469" x="184.2269" y="233.6267">Director</text><line style="stroke:#E7E7E7;stroke-width:0.5;" x1="88.39" x2="304.1107" y1="244.78" y2="244.78"/><line style="stroke:#E7E7E7;stroke-width:0.5;" x1="88.39" x2="304.1107" y1="252.78" y2="252.78"/><text fill="#FFFFFF" font-family="sans-serif" font-size="14" lengthAdjust="spacing" textLength="205.7207" x="93.39" y="269.7751">makeX(builder: Builder): void</text><text fill="#FFFFFF" font-family="sans-serif" font-size="14" lengthAdjust="spacing" textLength="204.6816" x="93.39" y="286.072">makeY(builder: Builder): void</text></g><!--class Client--><g id="elem_Client"><rect codeLine="31" fill="#313139" height="113.1875" id="Client" rx="2.5" ry="2.5" style="stroke:#E7E7E7;stroke-width:0.5;" width="378.5088" x="7" y="7"/><ellipse cx="171.7393" cy="23" fill="#2E5233" rx="11" ry="11" style="stroke:#E7E7E7;stroke-width:1;"/><path d="M174.708,28.6406 Q174.1299,28.9375 173.4893,29.0781 Q172.8486,29.2344 172.1455,29.2344 Q169.6455,29.2344 168.3174,27.5938 Q167.0049,25.9375 167.0049,22.8125 Q167.0049,19.6875 168.3174,18.0313 Q169.6455,16.375 172.1455,16.375 Q172.8486,16.375 173.4893,16.5313 Q174.1455,16.6875 174.708,16.9844 L174.708,19.7031 Q174.083,19.125 173.4893,18.8594 Q172.8955,18.5781 172.2705,18.5781 Q170.9268,18.5781 170.2393,19.6563 Q169.5518,20.7188 169.5518,22.8125 Q169.5518,24.9063 170.2393,25.9844 Q170.9268,27.0469 172.2705,27.0469 Q172.8955,27.0469 173.4893,26.7813 Q174.083,26.5 174.708,25.9219 L174.708,28.6406 Z " fill="#FFFFFF"/><text fill="#FFFFFF" font-family="sans-serif" font-size="14" lengthAdjust="spacing" textLength="40.5303" x="192.2393" y="27.8467">Client</text><line style="stroke:#E7E7E7;stroke-width:0.5;" x1="8" x2="384.5088" y1="39" y2="39"/><line style="stroke:#E7E7E7;stroke-width:0.5;" x1="8" x2="384.5088" y1="47" y2="47"/><text fill="#FFFFFF" font-family="sans-serif" font-size="14" lengthAdjust="spacing" textLength="366.5088" x="13" y="63.9951">ConcreteBuilder1 builder = new ConcreteBuilder1();</text><text fill="#FFFFFF" font-family="sans-serif" font-size="14" lengthAdjust="spacing" textLength="196.0889" x="13" y="80.292">Director d = new Director();</text><text fill="#FFFFFF" font-family="sans-serif" font-size="14" lengthAdjust="spacing" textLength="126.3008" x="13" y="96.5889">d.makeX(builder);</text><text fill="#FFFFFF" font-family="sans-serif" font-size="14" lengthAdjust="spacing" textLength="287.4375" x="13" y="112.8857">Product1 product = builder.getProduct();</text></g><!--reverse link Builder to ConcreteBuilder1--><g id="link_Builder_ConcreteBuilder1"><path d="M459.7586,137.8608 C454.3086,156.4208 453.24,160.08 447.49,179.69 " fill="none" id="Builder-backto-ConcreteBuilder1" style="stroke:#E7E7E7;stroke-width:1;stroke-dasharray:7.0,7.0;"/><polygon fill="none" points="464.83,120.59,454.0016,136.1703,465.5155,139.5513,464.83,120.59" style="stroke:#E7E7E7;stroke-width:1;"/></g><!--reverse link Builder to ConcreteBuilder2--><g id="link_Builder_ConcreteBuilder2"><path d="M537.6414,134.608 C552.5914,153.168 558.16,160.08 573.95,179.69 " fill="none" id="Builder-backto-ConcreteBuilder2" style="stroke:#E7E7E7;stroke-width:1;stroke-dasharray:7.0,7.0;"/><polygon fill="none" points="526.35,120.59,532.9688,138.3718,542.3141,130.8442,526.35,120.59" style="stroke:#E7E7E7;stroke-width:1;"/></g><!--link Client to Director--><g id="link_Client_Director"><path codeLine="39" d="M196.25,120.59 C196.25,150.16 196.25,179.74 196.25,206.42 " fill="none" id="Client-to-Director" style="stroke:#E7E7E7;stroke-width:1;"/><polygon fill="#E7E7E7" points="196.25,212.42,200.25,203.42,196.25,207.42,192.25,203.42,196.25,212.42" style="stroke:#E7E7E7;stroke-width:1;"/></g><!--link Client to ConcreteBuilder1--><g id="link_Client_ConcreteBuilder1"><path codeLine="40" d="M264.95,120.59 C288.64,139.91 310.8394,157.9989 335.7294,178.2889 " fill="none" id="Client-to-ConcreteBuilder1" style="stroke:#E7E7E7;stroke-width:1;stroke-dasharray:7.0,7.0;"/><polygon fill="#E7E7E7" points="340.38,182.08,335.9315,173.293,336.5045,178.9208,330.8768,179.4938,340.38,182.08" style="stroke:#E7E7E7;stroke-width:1;"/></g><!--reverse link Builder to Director--><g id="link_Builder_Director"><path codeLine="41" d="M415.2281,112.0315 C409.5481,115.9915 408.77,116.47 403.25,120.19 C355.91,152.11 301.42,186.75 260.23,212.52 " fill="none" id="Builder-backto-Director" style="stroke:#E7E7E7;stroke-width:1;"/><polygon fill="#E7E7E7" points="420.15,108.6,410.4795,110.4659,416.0484,111.4596,415.0548,117.0285,420.15,108.6" style="stroke:#E7E7E7;stroke-width:1;"/></g><!--SRC=[jP5D3e8m48NtFSKiOG49B45950_WKfVOZgQHlxH55yQxIwKj649YJDnDtkky-MRAQuNYN524RSTBXk91GA14vVa4fC9su_c9zGPbErFogV8aX9Q5b90tDHMeq1WHyAejiS9QoScmLZIieog1_L14Rdu2juQp7odWWieaQjc5Bz75tz75_wIBHxeT5qXLen6guee7xpHqkWWtNzl7HNjSj-JzQdtSx5TCAwoXnllCzloKE1fWvfKLtYuBFn2rPCzjxzUt6JUSRfvgFZAWGH1aBjTgOPZDY8WfO1K4hk45]--></g></svg>