<svg xmlns="http://www.w3.org/2000/svg" xmlns:xlink="http://www.w3.org/1999/xlink" contentStyleType="text/css" data-diagram-type="CLASS" height="235px" preserveAspectRatio="none" style="width:405px;height:235px;background:#1B1B1B;" version="1.1" viewBox="0 0 405 235" width="405px" zoomAndPan="magnify"><defs/><g><rect fill="#1B1B1B" height="235" style="stroke:none;stroke-width:1;" width="405" x="0" y="0"/><!--class Bulb--><g id="elem_Bulb"><rect codeLine="1" fill="#313139" height="80.5938" id="Bulb" rx="2.5" ry="2.5" style="stroke:#E7E7E7;stroke-width:0.5;" width="63.2539" x="156.32" y="7"/><ellipse cx="171.32" cy="23" fill="#352866" rx="11" ry="11" style="stroke:#E7E7E7;stroke-width:1;"/><path d="M167.2419,18.7656 L167.2419,16.6094 L174.6325,16.6094 L174.6325,18.7656 L172.1638,18.7656 L172.1638,26.8438 L174.6325,26.8438 L174.6325,29 L167.2419,29 L167.2419,26.8438 L169.7106,26.8438 L169.7106,18.7656 L167.2419,18.7656 Z " fill="#FFFFFF"/><text fill="#FFFFFF" font-family="sans-serif" font-size="14" font-style="italic" lengthAdjust="spacing" textLength="31.2539" x="185.32" y="27.8467">Bulb</text><line style="stroke:#E7E7E7;stroke-width:0.5;" x1="157.32" x2="218.5739" y1="39" y2="39"/><line style="stroke:#E7E7E7;stroke-width:0.5;" x1="157.32" x2="218.5739" y1="47" y2="47"/><text fill="#FFFFFF" font-family="sans-serif" font-size="14" lengthAdjust="spacing" textLength="28.3623" x="162.32" y="63.9951">on()</text><text fill="#FFFFFF" font-family="sans-serif" font-size="14" lengthAdjust="spacing" textLength="24.418" x="162.32" y="80.292">of()</text></g><!--class LGBulb--><g id="elem_LGBulb"><rect codeLine="6" fill="#313139" height="80.5938" id="LGBulb" rx="2.5" ry="2.5" style="stroke:#E7E7E7;stroke-width:0.5;" width="81.9023" x="7" y="147.6"/><ellipse cx="22" cy="163.6" fill="#2E5233" rx="11" ry="11" style="stroke:#E7E7E7;stroke-width:1;"/><path d="M24.9688,169.2406 Q24.3906,169.5375 23.75,169.6781 Q23.1094,169.8344 22.4063,169.8344 Q19.9063,169.8344 18.5781,168.1938 Q17.2656,166.5375 17.2656,163.4125 Q17.2656,160.2875 18.5781,158.6313 Q19.9063,156.975 22.4063,156.975 Q23.1094,156.975 23.75,157.1313 Q24.4063,157.2875 24.9688,157.5844 L24.9688,160.3031 Q24.3438,159.725 23.75,159.4594 Q23.1563,159.1781 22.5313,159.1781 Q21.1875,159.1781 20.5,160.2563 Q19.8125,161.3188 19.8125,163.4125 Q19.8125,165.5063 20.5,166.5844 Q21.1875,167.6469 22.5313,167.6469 Q23.1563,167.6469 23.75,167.3813 Q24.3438,167.1 24.9688,166.5219 L24.9688,169.2406 Z " fill="#FFFFFF"/><text fill="#FFFFFF" font-family="sans-serif" font-size="14" lengthAdjust="spacing" textLength="49.9023" x="36" y="168.4467">LGBulb</text><line style="stroke:#E7E7E7;stroke-width:0.5;" x1="8" x2="87.9023" y1="179.6" y2="179.6"/><line style="stroke:#E7E7E7;stroke-width:0.5;" x1="8" x2="87.9023" y1="187.6" y2="187.6"/><text fill="#FFFFFF" font-family="sans-serif" font-size="14" lengthAdjust="spacing" textLength="28.3623" x="13" y="204.5951">on()</text><text fill="#FFFFFF" font-family="sans-serif" font-size="14" lengthAdjust="spacing" textLength="24.418" x="13" y="220.892">of()</text></g><!--class SamsungBulb--><g id="elem_SamsungBulb"><rect codeLine="11" fill="#313139" height="80.5938" id="SamsungBulb" rx="2.5" ry="2.5" style="stroke:#E7E7E7;stroke-width:0.5;" width="128.2842" x="123.81" y="147.6"/><ellipse cx="138.81" cy="163.6" fill="#2E5233" rx="11" ry="11" style="stroke:#E7E7E7;stroke-width:1;"/><path d="M141.7788,169.2406 Q141.2006,169.5375 140.56,169.6781 Q139.9194,169.8344 139.2163,169.8344 Q136.7163,169.8344 135.3881,168.1938 Q134.0756,166.5375 134.0756,163.4125 Q134.0756,160.2875 135.3881,158.6313 Q136.7163,156.975 139.2163,156.975 Q139.9194,156.975 140.56,157.1313 Q141.2163,157.2875 141.7788,157.5844 L141.7788,160.3031 Q141.1538,159.725 140.56,159.4594 Q139.9663,159.1781 139.3413,159.1781 Q137.9975,159.1781 137.31,160.2563 Q136.6225,161.3188 136.6225,163.4125 Q136.6225,165.5063 137.31,166.5844 Q137.9975,167.6469 139.3413,167.6469 Q139.9663,167.6469 140.56,167.3813 Q141.1538,167.1 141.7788,166.5219 L141.7788,169.2406 Z " fill="#FFFFFF"/><text fill="#FFFFFF" font-family="sans-serif" font-size="14" lengthAdjust="spacing" textLength="96.2842" x="152.81" y="168.4467">SamsungBulb</text><line style="stroke:#E7E7E7;stroke-width:0.5;" x1="124.81" x2="251.0942" y1="179.6" y2="179.6"/><line style="stroke:#E7E7E7;stroke-width:0.5;" x1="124.81" x2="251.0942" y1="187.6" y2="187.6"/><text fill="#FFFFFF" font-family="sans-serif" font-size="14" lengthAdjust="spacing" textLength="28.3623" x="129.81" y="204.5951">on()</text><text fill="#FFFFFF" font-family="sans-serif" font-size="14" lengthAdjust="spacing" textLength="29.3467" x="129.81" y="220.892">off()</text></g><!--class XiaomiBulb--><g id="elem_XiaomiBulb"><rect codeLine="16" fill="#313139" height="80.5938" id="XiaomiBulb" rx="2.5" ry="2.5" style="stroke:#E7E7E7;stroke-width:0.5;" width="111.4063" x="287.25" y="147.6"/><ellipse cx="302.25" cy="163.6" fill="#2E5233" rx="11" ry="11" style="stroke:#E7E7E7;stroke-width:1;"/><path d="M305.2188,169.2406 Q304.6406,169.5375 304,169.6781 Q303.3594,169.8344 302.6563,169.8344 Q300.1563,169.8344 298.8281,168.1938 Q297.5156,166.5375 297.5156,163.4125 Q297.5156,160.2875 298.8281,158.6313 Q300.1563,156.975 302.6563,156.975 Q303.3594,156.975 304,157.1313 Q304.6563,157.2875 305.2188,157.5844 L305.2188,160.3031 Q304.5938,159.725 304,159.4594 Q303.4063,159.1781 302.7813,159.1781 Q301.4375,159.1781 300.75,160.2563 Q300.0625,161.3188 300.0625,163.4125 Q300.0625,165.5063 300.75,166.5844 Q301.4375,167.6469 302.7813,167.6469 Q303.4063,167.6469 304,167.3813 Q304.5938,167.1 305.2188,166.5219 L305.2188,169.2406 Z " fill="#FFFFFF"/><text fill="#FFFFFF" font-family="sans-serif" font-size="14" lengthAdjust="spacing" textLength="79.4063" x="316.25" y="168.4467">XiaomiBulb</text><line style="stroke:#E7E7E7;stroke-width:0.5;" x1="288.25" x2="397.6563" y1="179.6" y2="179.6"/><line style="stroke:#E7E7E7;stroke-width:0.5;" x1="288.25" x2="397.6563" y1="187.6" y2="187.6"/><text fill="#FFFFFF" font-family="sans-serif" font-size="14" lengthAdjust="spacing" textLength="28.3623" x="293.25" y="204.5951">on()</text><text fill="#FFFFFF" font-family="sans-serif" font-size="14" lengthAdjust="spacing" textLength="29.3467" x="293.25" y="220.892">off()</text></g><!--reverse link Bulb to LGBulb--><g id="link_Bulb_LGBulb"><path d="M143.0357,92.7612 C122.8557,112.7312 109.46,126.01 87.93,147.31 " fill="none" id="Bulb-backto-LGBulb" style="stroke:#E7E7E7;stroke-width:1;stroke-dasharray:7.0,7.0;"/><polygon fill="none" points="155.83,80.1,138.8153,88.4964,147.2561,97.0259,155.83,80.1" style="stroke:#E7E7E7;stroke-width:1;"/></g><!--reverse link Bulb to SamsungBulb--><g id="link_Bulb_SamsungBulb"><path d="M187.95,106.01 C187.95,124.57 187.95,128.61 187.95,147.17 " fill="none" id="Bulb-backto-SamsungBulb" style="stroke:#E7E7E7;stroke-width:1;stroke-dasharray:7.0,7.0;"/><polygon fill="none" points="187.95,88.01,181.95,106.01,193.95,106.01,187.95,88.01" style="stroke:#E7E7E7;stroke-width:1;"/></g><!--reverse link Bulb to XiaomiBulb--><g id="link_Bulb_XiaomiBulb"><path d="M233.4904,89.0156 C256.1904,109.3056 273.49,124.78 298.53,147.18 " fill="none" id="Bulb-backto-XiaomiBulb" style="stroke:#E7E7E7;stroke-width:1;stroke-dasharray:7.0,7.0;"/><polygon fill="none" points="220.07,77.02,229.4919,93.489,237.4889,84.5421,220.07,77.02" style="stroke:#E7E7E7;stroke-width:1;"/></g><!--SRC=[oymhIIrAIqnELN0gpKcgvbB8pzFG199fGBAMYoiv9x6uMC777IIfa9bRa9EQcvfNKenFSN1YRd5fNZe17IXQ8Z8JytCpYT410000]--></g></svg>