<svg xmlns="http://www.w3.org/2000/svg" xmlns:xlink="http://www.w3.org/1999/xlink" contentStyleType="text/css" data-diagram-type="CLASS" height="603px" preserveAspectRatio="none" style="width:680px;height:603px;background:#1B1B1B;" version="1.1" viewBox="0 0 680 603" width="680px" zoomAndPan="magnify"><defs/><g><rect fill="#1B1B1B" height="603" style="stroke:#FFFFFF00;stroke-width:1;" width="680" x="0" y="0"/><!--class Device--><g id="elem_Device"><rect codeLine="1" fill="#313139" height="194.6719" id="Device" rx="2.5" ry="2.5" style="stroke:#E7E7E7;stroke-width:0.5;" width="218.6914" x="201.05" y="7"/><ellipse cx="282.2063" cy="23" fill="#352866" rx="11" ry="11" style="stroke:#E7E7E7;stroke-width:1;"/><path d="M278.1281,18.7656 L278.1281,16.6094 L285.5188,16.6094 L285.5188,18.7656 L283.05,18.7656 L283.05,26.8438 L285.5188,26.8438 L285.5188,29 L278.1281,29 L278.1281,26.8438 L280.5969,26.8438 L280.5969,18.7656 L278.1281,18.7656 Z " fill="#FFFFFF"/><text fill="#FFFFFF" font-family="sans-serif" font-size="14" font-style="italic" lengthAdjust="spacing" textLength="47.8789" x="302.7063" y="27.8467">Device</text><line style="stroke:#E7E7E7;stroke-width:0.5;" x1="202.05" x2="418.7414" y1="39" y2="39"/><line style="stroke:#E7E7E7;stroke-width:0.5;" x1="202.05" x2="418.7414" y1="47" y2="47"/><text fill="#FFFFFF" font-family="sans-serif" font-size="14" lengthAdjust="spacing" textLength="143.8213" x="207.05" y="63.9951">isEnabled(): boolean</text><text fill="#FFFFFF" font-family="sans-serif" font-size="14" lengthAdjust="spacing" textLength="97.1729" x="207.05" y="80.292">enable(): void</text><text fill="#FFFFFF" font-family="sans-serif" font-size="14" lengthAdjust="spacing" textLength="99.7568" x="207.05" y="96.5889">disable(): void</text><text fill="#FFFFFF" font-family="sans-serif" font-size="14" lengthAdjust="spacing" textLength="114.4883" x="207.05" y="112.8857">getVolume(): int</text><text fill="#FFFFFF" font-family="sans-serif" font-size="14" lengthAdjust="spacing" textLength="198.8369" x="207.05" y="129.1826">setVolume(int volume): void</text><text fill="#FFFFFF" font-family="sans-serif" font-size="14" lengthAdjust="spacing" textLength="118.8086" x="207.05" y="145.4795">getChannel(): int</text><text fill="#FFFFFF" font-family="sans-serif" font-size="14" lengthAdjust="spacing" textLength="206.6914" x="207.05" y="161.7764">setChannel(int channel): void</text><text fill="#FFFFFF" font-family="sans-serif" font-size="14" lengthAdjust="spacing" textLength="175.1025" x="207.05" y="178.0732">printDeviceStatus(): void</text><text fill="#FFFFFF" font-family="sans-serif" font-size="14" lengthAdjust="spacing" textLength="117.708" x="207.05" y="194.3701">toString(): String</text></g><!--class Radio--><g id="elem_Radio"><rect codeLine="19" fill="#313139" height="194.6719" id="Radio" rx="2.5" ry="2.5" style="stroke:#E7E7E7;stroke-width:0.5;" width="218.6914" x="201.05" y="261.67"/><ellipse cx="286.3215" cy="277.67" fill="#2E5233" rx="11" ry="11" style="stroke:#E7E7E7;stroke-width:1;"/><path d="M289.2902,283.3106 Q288.7121,283.6075 288.0715,283.7481 Q287.4309,283.9044 286.7277,283.9044 Q284.2277,283.9044 282.8996,282.2638 Q281.5871,280.6075 281.5871,277.4825 Q281.5871,274.3575 282.8996,272.7013 Q284.2277,271.045 286.7277,271.045 Q287.4309,271.045 288.0715,271.2013 Q288.7277,271.3575 289.2902,271.6544 L289.2902,274.3731 Q288.6652,273.795 288.0715,273.5294 Q287.4777,273.2481 286.8527,273.2481 Q285.509,273.2481 284.8215,274.3263 Q284.134,275.3888 284.134,277.4825 Q284.134,279.5763 284.8215,280.6544 Q285.509,281.7169 286.8527,281.7169 Q287.4777,281.7169 288.0715,281.4513 Q288.6652,281.17 289.2902,280.5919 L289.2902,283.3106 Z " fill="#FFFFFF"/><text fill="#FFFFFF" font-family="sans-serif" font-size="14" lengthAdjust="spacing" textLength="39.6484" x="306.8215" y="282.5167">Radio</text><line style="stroke:#E7E7E7;stroke-width:0.5;" x1="202.05" x2="418.7414" y1="293.67" y2="293.67"/><line style="stroke:#E7E7E7;stroke-width:0.5;" x1="202.05" x2="418.7414" y1="301.67" y2="301.67"/><text fill="#FFFFFF" font-family="sans-serif" font-size="14" lengthAdjust="spacing" textLength="143.8213" x="207.05" y="318.6651">isEnabled(): boolean</text><text fill="#FFFFFF" font-family="sans-serif" font-size="14" lengthAdjust="spacing" textLength="97.1729" x="207.05" y="334.962">enable(): void</text><text fill="#FFFFFF" font-family="sans-serif" font-size="14" lengthAdjust="spacing" textLength="99.7568" x="207.05" y="351.2589">disable(): void</text><text fill="#FFFFFF" font-family="sans-serif" font-size="14" lengthAdjust="spacing" textLength="114.4883" x="207.05" y="367.5557">getVolume(): int</text><text fill="#FFFFFF" font-family="sans-serif" font-size="14" lengthAdjust="spacing" textLength="198.8369" x="207.05" y="383.8526">setVolume(int volume): void</text><text fill="#FFFFFF" font-family="sans-serif" font-size="14" lengthAdjust="spacing" textLength="118.8086" x="207.05" y="400.1495">getChannel(): int</text><text fill="#FFFFFF" font-family="sans-serif" font-size="14" lengthAdjust="spacing" textLength="206.6914" x="207.05" y="416.4464">setChannel(int channel): void</text><text fill="#FFFFFF" font-family="sans-serif" font-size="14" lengthAdjust="spacing" textLength="175.1025" x="207.05" y="432.7432">printDeviceStatus(): void</text><text fill="#FFFFFF" font-family="sans-serif" font-size="14" lengthAdjust="spacing" textLength="117.708" x="207.05" y="449.0401">toString(): String</text></g><!--class Tv--><g id="elem_Tv"><rect codeLine="37" fill="#313139" height="194.6719" id="Tv" rx="2.5" ry="2.5" style="stroke:#E7E7E7;stroke-width:0.5;" width="218.6914" x="455.05" y="261.67"/><ellipse cx="551.7272" cy="277.67" fill="#2E5233" rx="11" ry="11" style="stroke:#E7E7E7;stroke-width:1;"/><path d="M554.696,283.3106 Q554.1179,283.6075 553.4772,283.7481 Q552.8366,283.9044 552.1335,283.9044 Q549.6335,283.9044 548.3054,282.2638 Q546.9929,280.6075 546.9929,277.4825 Q546.9929,274.3575 548.3054,272.7013 Q549.6335,271.045 552.1335,271.045 Q552.8366,271.045 553.4772,271.2013 Q554.1335,271.3575 554.696,271.6544 L554.696,274.3731 Q554.071,273.795 553.4772,273.5294 Q552.8835,273.2481 552.2585,273.2481 Q550.9147,273.2481 550.2272,274.3263 Q549.5397,275.3888 549.5397,277.4825 Q549.5397,279.5763 550.2272,280.6544 Q550.9147,281.7169 552.2585,281.7169 Q552.8835,281.7169 553.4772,281.4513 Q554.071,281.17 554.696,280.5919 L554.696,283.3106 Z " fill="#FFFFFF"/><text fill="#FFFFFF" font-family="sans-serif" font-size="14" lengthAdjust="spacing" textLength="16.8369" x="572.2272" y="282.5167">Tv</text><line style="stroke:#E7E7E7;stroke-width:0.5;" x1="456.05" x2="672.7414" y1="293.67" y2="293.67"/><line style="stroke:#E7E7E7;stroke-width:0.5;" x1="456.05" x2="672.7414" y1="301.67" y2="301.67"/><text fill="#FFFFFF" font-family="sans-serif" font-size="14" lengthAdjust="spacing" textLength="143.8213" x="461.05" y="318.6651">isEnabled(): boolean</text><text fill="#FFFFFF" font-family="sans-serif" font-size="14" lengthAdjust="spacing" textLength="97.1729" x="461.05" y="334.962">enable(): void</text><text fill="#FFFFFF" font-family="sans-serif" font-size="14" lengthAdjust="spacing" textLength="99.7568" x="461.05" y="351.2589">disable(): void</text><text fill="#FFFFFF" font-family="sans-serif" font-size="14" lengthAdjust="spacing" textLength="114.4883" x="461.05" y="367.5557">getVolume(): int</text><text fill="#FFFFFF" font-family="sans-serif" font-size="14" lengthAdjust="spacing" textLength="198.8369" x="461.05" y="383.8526">setVolume(int volume): void</text><text fill="#FFFFFF" font-family="sans-serif" font-size="14" lengthAdjust="spacing" textLength="118.8086" x="461.05" y="400.1495">getChannel(): int</text><text fill="#FFFFFF" font-family="sans-serif" font-size="14" lengthAdjust="spacing" textLength="206.6914" x="461.05" y="416.4464">setChannel(int channel): void</text><text fill="#FFFFFF" font-family="sans-serif" font-size="14" lengthAdjust="spacing" textLength="175.1025" x="461.05" y="432.7432">printDeviceStatus(): void</text><text fill="#FFFFFF" font-family="sans-serif" font-size="14" lengthAdjust="spacing" textLength="117.708" x="461.05" y="449.0401">toString(): String</text></g><!--class Remote--><g id="elem_Remote"><rect codeLine="56" fill="#313139" height="145.7813" id="Remote" rx="2.5" ry="2.5" style="stroke:#E7E7E7;stroke-width:0.5;" width="156.7852" x="9" y="31.45"/><ellipse cx="55.8193" cy="47.45" fill="#352866" rx="11" ry="11" style="stroke:#E7E7E7;stroke-width:1;"/><path d="M51.7412,43.2156 L51.7412,41.0594 L59.1318,41.0594 L59.1318,43.2156 L56.6631,43.2156 L56.6631,51.2938 L59.1318,51.2938 L59.1318,53.45 L51.7412,53.45 L51.7412,51.2938 L54.21,51.2938 L54.21,43.2156 L51.7412,43.2156 Z " fill="#FFFFFF"/><text fill="#FFFFFF" font-family="sans-serif" font-size="14" font-style="italic" lengthAdjust="spacing" textLength="54.6465" x="76.3193" y="52.2967">Remote</text><line style="stroke:#E7E7E7;stroke-width:0.5;" x1="10" x2="164.7852" y1="63.45" y2="63.45"/><line style="stroke:#E7E7E7;stroke-width:0.5;" x1="10" x2="164.7852" y1="71.45" y2="71.45"/><text fill="#FFFFFF" font-family="sans-serif" font-size="14" lengthAdjust="spacing" textLength="92.9893" x="15" y="88.4451">power(): void</text><text fill="#FFFFFF" font-family="sans-serif" font-size="14" lengthAdjust="spacing" textLength="120.7158" x="15" y="104.742">volumeUp(): void</text><text fill="#FFFFFF" font-family="sans-serif" font-size="14" lengthAdjust="spacing" textLength="141.251" x="15" y="121.0389">volumeDown(): void</text><text fill="#FFFFFF" font-family="sans-serif" font-size="14" lengthAdjust="spacing" textLength="4.4502" x="15" y="137.3357">&#160;</text><text fill="#FFFFFF" font-family="sans-serif" font-size="14" lengthAdjust="spacing" textLength="124.25" x="15" y="153.6326">channelUp(): void</text><text fill="#FFFFFF" font-family="sans-serif" font-size="14" lengthAdjust="spacing" textLength="144.7852" x="15" y="169.9295">channelDown(): void</text></g><!--class BasicRemote--><g id="elem_BasicRemote"><rect codeLine="68" fill="#313139" height="178.375" id="BasicRemote" rx="2.5" ry="2.5" style="stroke:#E7E7E7;stroke-width:0.5;" width="156.7852" x="9" y="269.82"/><ellipse cx="38.8834" cy="285.82" fill="#2E5233" rx="11" ry="11" style="stroke:#E7E7E7;stroke-width:1;"/><path d="M41.8521,291.4606 Q41.274,291.7575 40.6334,291.8981 Q39.9928,292.0544 39.2896,292.0544 Q36.7896,292.0544 35.4615,290.4138 Q34.149,288.7575 34.149,285.6325 Q34.149,282.5075 35.4615,280.8513 Q36.7896,279.195 39.2896,279.195 Q39.9928,279.195 40.6334,279.3513 Q41.2896,279.5075 41.8521,279.8044 L41.8521,282.5231 Q41.2271,281.945 40.6334,281.6794 Q40.0396,281.3981 39.4146,281.3981 Q38.0709,281.3981 37.3834,282.4763 Q36.6959,283.5388 36.6959,285.6325 Q36.6959,287.7263 37.3834,288.8044 Q38.0709,289.8669 39.4146,289.8669 Q40.0396,289.8669 40.6334,289.6013 Q41.2271,289.32 41.8521,288.7419 L41.8521,291.4606 Z " fill="#FFFFFF"/><text fill="#FFFFFF" font-family="sans-serif" font-size="14" lengthAdjust="spacing" textLength="91.7109" x="56.1908" y="290.6667">BasicRemote</text><line style="stroke:#E7E7E7;stroke-width:0.5;" x1="10" x2="164.7852" y1="301.82" y2="301.82"/><polygon fill="#FFFFFF" fill-opacity="0.00000" points="20,310.4684,24,314.4684,20,318.4684,16,314.4684" style="stroke:#B38D22;stroke-width:1;"/><text fill="#FFFFFF" font-family="sans-serif" font-size="14" lengthAdjust="spacing" textLength="98.3145" x="29" y="318.8151">Device device</text><line style="stroke:#E7E7E7;stroke-width:0.5;" x1="10" x2="164.7852" y1="326.1169" y2="326.1169"/><text fill="#FFFFFF" font-family="sans-serif" font-size="14" lengthAdjust="spacing" textLength="92.9893" x="15" y="343.112">power(): void</text><text fill="#FFFFFF" font-family="sans-serif" font-size="14" lengthAdjust="spacing" textLength="4.4502" x="15" y="359.4089">&#160;</text><text fill="#FFFFFF" font-family="sans-serif" font-size="14" lengthAdjust="spacing" textLength="120.7158" x="15" y="375.7057">volumeUp(): void</text><text fill="#FFFFFF" font-family="sans-serif" font-size="14" lengthAdjust="spacing" textLength="141.251" x="15" y="392.0026">volumeDown(): void</text><text fill="#FFFFFF" font-family="sans-serif" font-size="14" lengthAdjust="spacing" textLength="4.4502" x="15" y="408.2995">&#160;</text><text fill="#FFFFFF" font-family="sans-serif" font-size="14" lengthAdjust="spacing" textLength="124.25" x="15" y="424.5964">channelUp(): void</text><text fill="#FFFFFF" font-family="sans-serif" font-size="14" lengthAdjust="spacing" textLength="144.7852" x="15" y="440.8932">channelDown(): void</text></g><!--class AdvancedRemote--><g id="elem_AdvancedRemote"><rect codeLine="82" fill="#313139" height="80.5938" id="AdvancedRemote" rx="2.5" ry="2.5" style="stroke:#E7E7E7;stroke-width:0.5;" width="156.0449" x="9.37" y="516.35"/><ellipse cx="24.37" cy="532.35" fill="#2E5233" rx="11" ry="11" style="stroke:#E7E7E7;stroke-width:1;"/><path d="M27.3387,537.9906 Q26.7606,538.2875 26.12,538.4281 Q25.4794,538.5844 24.7762,538.5844 Q22.2762,538.5844 20.9481,536.9438 Q19.6356,535.2875 19.6356,532.1625 Q19.6356,529.0375 20.9481,527.3813 Q22.2762,525.725 24.7762,525.725 Q25.4794,525.725 26.12,525.8813 Q26.7762,526.0375 27.3387,526.3344 L27.3387,529.0531 Q26.7137,528.475 26.12,528.2094 Q25.5262,527.9281 24.9012,527.9281 Q23.5575,527.9281 22.87,529.0063 Q22.1825,530.0688 22.1825,532.1625 Q22.1825,534.2563 22.87,535.3344 Q23.5575,536.3969 24.9012,536.3969 Q25.5262,536.3969 26.12,536.1313 Q26.7137,535.85 27.3387,535.2719 L27.3387,537.9906 Z " fill="#FFFFFF"/><text fill="#FFFFFF" font-family="sans-serif" font-size="14" lengthAdjust="spacing" textLength="124.0449" x="38.37" y="537.1967">AdvancedRemote</text><line style="stroke:#E7E7E7;stroke-width:0.5;" x1="10.37" x2="164.4149" y1="548.35" y2="548.35"/><polygon fill="#FFFFFF" fill-opacity="0.00000" points="20.37,556.9984,24.37,560.9984,20.37,564.9984,16.37,560.9984" style="stroke:#B38D22;stroke-width:1;"/><text fill="#FFFFFF" font-family="sans-serif" font-size="14" lengthAdjust="spacing" textLength="98.3145" x="29.37" y="565.3451">Device device</text><line style="stroke:#E7E7E7;stroke-width:0.5;" x1="10.37" x2="164.4149" y1="572.6469" y2="572.6469"/><text fill="#FFFFFF" font-family="sans-serif" font-size="14" lengthAdjust="spacing" textLength="86.3311" x="15.37" y="589.642">mute(): void</text></g><!--reverse link Device to Radio--><g id="link_Device_Radio"><path d="M310.39,219.94 C310.39,239.45 310.39,241.96 310.39,261.46 " fill="#FFFFFF" fill-opacity="0.00000" id="Device-backto-Radio" style="stroke:#E7E7E7;stroke-width:1;stroke-dasharray:7.0,7.0;"/><polygon fill="#FFFFFF" fill-opacity="0.00000" points="310.39,201.94,304.39,219.94,316.39,219.94,310.39,201.94" style="stroke:#E7E7E7;stroke-width:1;"/></g><!--reverse link Device to Tv--><g id="link_Device_Tv"><path d="M420.2672,214.6386 C439.8672,234.1486 447.73,241.96 467.33,261.46 " fill="#FFFFFF" fill-opacity="0.00000" id="Device-backto-Tv" style="stroke:#E7E7E7;stroke-width:1;stroke-dasharray:7.0,7.0;"/><polygon fill="#FFFFFF" fill-opacity="0.00000" points="407.51,201.94,416.0343,218.891,424.5,210.3862,407.51,201.94" style="stroke:#E7E7E7;stroke-width:1;"/></g><!--reverse link Remote to BasicRemote--><g id="link_Remote_BasicRemote"><path d="M87.39,195.41 C87.39,224.14 87.39,239.5 87.39,269.67 " fill="#FFFFFF" fill-opacity="0.00000" id="Remote-backto-BasicRemote" style="stroke:#E7E7E7;stroke-width:1;stroke-dasharray:7.0,7.0;"/><polygon fill="#FFFFFF" fill-opacity="0.00000" points="87.39,177.41,81.39,195.41,93.39,195.41,87.39,177.41" style="stroke:#E7E7E7;stroke-width:1;"/></g><!--reverse link BasicRemote to AdvancedRemote--><g id="link_BasicRemote_AdvancedRemote"><path d="M87.39,466.67 C87.39,490.33 87.39,496.7 87.39,516.2 " fill="#FFFFFF" fill-opacity="0.00000" id="BasicRemote-backto-AdvancedRemote" style="stroke:#E7E7E7;stroke-width:1;"/><polygon fill="#FFFFFF" fill-opacity="0.00000" points="87.39,448.67,81.39,466.67,93.39,466.67,87.39,448.67" style="stroke:#E7E7E7;stroke-width:1;"/></g><!--link Remote to Device--><g id="link_Remote_Device"><path codeLine="88" d="M166.23,104.34 C177.68,104.34 177.13,104.34 188.58,104.34 " fill="#FFFFFF" fill-opacity="0.00000" id="Remote-to-Device" style="stroke:#E7E7E7;stroke-width:1;"/><polygon fill="#FFFFFF" fill-opacity="0.00000" points="200.58,104.34,194.58,100.34,188.58,104.34,194.58,108.34,200.58,104.34" style="stroke:#E7E7E7;stroke-width:1;"/></g><!--SRC=[vPB1JiCm343l-Of8NCQ17-3663-mCUvPOeQbrAuQjqD2_3jkauLbuinbKgMuhtRwx0H9O7Xt7km69jJbonXhCRsGEqG8g_j7Us2Eu4WnB71c4sDG431T4NsE86ySnsx1IA8eLQJlcZg7rpNF7uu8ObDqPdELpt5JrW_w9OllnCcOMXFXdMZ6SQOvCkRR61zTIdRh0hB5he_G0KcwkG6yJhVNlNBjts2zzLleM4hRFPzWQBV8hll-WcQquHDLgBJeDPc5jQbr_6kNq9VVNvn35RBsxdmeOLbCQVeVBFEOikTJc1nv24KCFWKejFf_oIvYtIY_jqDtBFaFN99_0000]--></g></svg>