<svg xmlns="http://www.w3.org/2000/svg" xmlns:xlink="http://www.w3.org/1999/xlink" contentStyleType="text/css" data-diagram-type="CLASS" height="614px" preserveAspectRatio="none" style="width:1287px;height:614px;background:#1B1B1B;" version="1.1" viewBox="0 0 1287 614" width="1287px" zoomAndPan="magnify"><defs/><g><rect fill="#1B1B1B" height="614" style="stroke:none;stroke-width:1;" width="1287" x="0" y="0"/><!--class RentalRecord--><g id="elem_RentalRecord"><rect codeLine="1" fill="#313139" height="129.4844" id="RentalRecord" rx="2.5" ry="2.5" style="stroke:#E7E7E7;stroke-width:0.5;" width="188.4355" x="7" y="320.79"/><ellipse cx="49.9079" cy="336.79" fill="#2E5233" rx="11" ry="11" style="stroke:#E7E7E7;stroke-width:1;"/><path d="M52.8767,342.4306 Q52.2985,342.7275 51.6579,342.8681 Q51.0173,343.0244 50.3142,343.0244 Q47.8142,343.0244 46.486,341.3837 Q45.1735,339.7275 45.1735,336.6025 Q45.1735,333.4775 46.486,331.8212 Q47.8142,330.165 50.3142,330.165 Q51.0173,330.165 51.6579,330.3212 Q52.3142,330.4775 52.8767,330.7744 L52.8767,333.4931 Q52.2517,332.915 51.6579,332.6494 Q51.0642,332.3681 50.4392,332.3681 Q49.0954,332.3681 48.4079,333.4462 Q47.7204,334.5087 47.7204,336.6025 Q47.7204,338.6962 48.4079,339.7744 Q49.0954,340.8369 50.4392,340.8369 Q51.0642,340.8369 51.6579,340.5712 Q52.2517,340.29 52.8767,339.7119 L52.8767,342.4306 Z " fill="#FFFFFF"/><text fill="#FFFFFF" font-family="sans-serif" font-size="14" lengthAdjust="spacing" textLength="94.418" x="70.1097" y="341.6367">RentalRecord</text><line style="stroke:#E7E7E7;stroke-width:0.5;" x1="8" x2="194.4355" y1="352.79" y2="352.79"/><text fill="#FFFFFF" font-family="sans-serif" font-size="14" lengthAdjust="spacing" textLength="105.4648" x="13" y="369.7851">Vehicle vehicle</text><text fill="#FFFFFF" font-family="sans-serif" font-size="14" lengthAdjust="spacing" textLength="176.4355" x="13" y="386.082">LocalDateTime startTime</text><text fill="#FFFFFF" font-family="sans-serif" font-size="14" lengthAdjust="spacing" textLength="170.2012" x="13" y="402.3789">LocalDateTime endTime</text><text fill="#FFFFFF" font-family="sans-serif" font-size="14" lengthAdjust="spacing" textLength="88.9014" x="13" y="418.6757">Double price</text><line style="stroke:#E7E7E7;stroke-width:0.5;" x1="8" x2="194.4355" y1="425.9775" y2="425.9775"/><text fill="#FFFFFF" font-family="sans-serif" font-size="14" lengthAdjust="spacing" textLength="147.4238" x="13" y="442.9726">calculatePrice(): void</text></g><!--class Rental--><g id="elem_Rental"><rect codeLine="10" fill="#313139" height="80.5938" id="Rental" rx="2.5" ry="2.5" style="stroke:#E7E7E7;stroke-width:0.5;" width="265.6748" x="294.38" y="180.19"/><ellipse cx="400.3815" cy="196.19" fill="#2E5233" rx="11" ry="11" style="stroke:#E7E7E7;stroke-width:1;"/><path d="M403.3502,201.8306 Q402.7721,202.1275 402.1315,202.2681 Q401.4908,202.4244 400.7877,202.4244 Q398.2877,202.4244 396.9596,200.7837 Q395.6471,199.1275 395.6471,196.0025 Q395.6471,192.8775 396.9596,191.2212 Q398.2877,189.565 400.7877,189.565 Q401.4908,189.565 402.1315,189.7212 Q402.7877,189.8775 403.3502,190.1744 L403.3502,192.8931 Q402.7252,192.315 402.1315,192.0494 Q401.5377,191.7681 400.9127,191.7681 Q399.569,191.7681 398.8815,192.8462 Q398.194,193.9087 398.194,196.0025 Q398.194,198.0962 398.8815,199.1744 Q399.569,200.2369 400.9127,200.2369 Q401.5377,200.2369 402.1315,199.9712 Q402.7252,199.69 403.3502,199.1119 L403.3502,201.8306 Z " fill="#FFFFFF"/><text fill="#FFFFFF" font-family="sans-serif" font-size="14" lengthAdjust="spacing" textLength="45.1719" x="420.8815" y="201.0367">Rental</text><line style="stroke:#E7E7E7;stroke-width:0.5;" x1="295.38" x2="559.0548" y1="212.19" y2="212.19"/><line style="stroke:#E7E7E7;stroke-width:0.5;" x1="295.38" x2="559.0548" y1="220.19" y2="220.19"/><text fill="#FFFFFF" font-family="sans-serif" font-size="14" lengthAdjust="spacing" textLength="229.3662" x="300.38" y="237.1851">abstract createVehicle(): Vehicle</text><text fill="#FFFFFF" font-family="sans-serif" font-size="14" lengthAdjust="spacing" textLength="253.6748" x="300.38" y="253.482">createRentalRecord(): RentalRecord</text></g><!--class CarRental--><g id="elem_CarRental"><rect codeLine="15" fill="#313139" height="64.2969" id="CarRental" rx="2.5" ry="2.5" style="stroke:#E7E7E7;stroke-width:0.5;" width="179.1455" x="230.65" y="353.38"/><ellipse cx="281.3316" cy="369.38" fill="#2E5233" rx="11" ry="11" style="stroke:#E7E7E7;stroke-width:1;"/><path d="M284.3004,375.0206 Q283.7223,375.3175 283.0816,375.4581 Q282.441,375.6144 281.7379,375.6144 Q279.2379,375.6144 277.9098,373.9738 Q276.5973,372.3175 276.5973,369.1925 Q276.5973,366.0675 277.9098,364.4113 Q279.2379,362.755 281.7379,362.755 Q282.441,362.755 283.0816,362.9113 Q283.7379,363.0675 284.3004,363.3644 L284.3004,366.0831 Q283.6754,365.505 283.0816,365.2394 Q282.4879,364.9581 281.8629,364.9581 Q280.5191,364.9581 279.8316,366.0363 Q279.1441,367.0988 279.1441,369.1925 Q279.1441,371.2863 279.8316,372.3644 Q280.5191,373.4269 281.8629,373.4269 Q282.4879,373.4269 283.0816,373.1613 Q283.6754,372.88 284.3004,372.3019 L284.3004,375.0206 Z " fill="#FFFFFF"/><text fill="#FFFFFF" font-family="sans-serif" font-size="14" lengthAdjust="spacing" textLength="69.2822" x="301.8316" y="374.2267">CarRental</text><line style="stroke:#E7E7E7;stroke-width:0.5;" x1="231.65" x2="408.7955" y1="385.38" y2="385.38"/><line style="stroke:#E7E7E7;stroke-width:0.5;" x1="231.65" x2="408.7955" y1="393.38" y2="393.38"/><text fill="#FFFFFF" font-family="sans-serif" font-size="14" lengthAdjust="spacing" textLength="167.1455" x="236.65" y="410.3751">createVehicle(): Vehicle</text></g><!--class BikeRental--><g id="elem_BikeRental"><rect codeLine="19" fill="#313139" height="64.2969" id="BikeRental" rx="2.5" ry="2.5" style="stroke:#E7E7E7;stroke-width:0.5;" width="179.1455" x="444.65" y="353.38"/><ellipse cx="492.2794" cy="369.38" fill="#2E5233" rx="11" ry="11" style="stroke:#E7E7E7;stroke-width:1;"/><path d="M495.2481,375.0206 Q494.67,375.3175 494.0294,375.4581 Q493.3888,375.6144 492.6856,375.6144 Q490.1856,375.6144 488.8575,373.9738 Q487.545,372.3175 487.545,369.1925 Q487.545,366.0675 488.8575,364.4113 Q490.1856,362.755 492.6856,362.755 Q493.3888,362.755 494.0294,362.9113 Q494.6856,363.0675 495.2481,363.3644 L495.2481,366.0831 Q494.6231,365.505 494.0294,365.2394 Q493.4356,364.9581 492.8106,364.9581 Q491.4669,364.9581 490.7794,366.0363 Q490.0919,367.0988 490.0919,369.1925 Q490.0919,371.2863 490.7794,372.3644 Q491.4669,373.4269 492.8106,373.4269 Q493.4356,373.4269 494.0294,373.1613 Q494.6231,372.88 495.2481,372.3019 L495.2481,375.0206 Z " fill="#FFFFFF"/><text fill="#FFFFFF" font-family="sans-serif" font-size="14" lengthAdjust="spacing" textLength="75.3867" x="512.7794" y="374.2267">BikeRental</text><line style="stroke:#E7E7E7;stroke-width:0.5;" x1="445.65" x2="622.7955" y1="385.38" y2="385.38"/><line style="stroke:#E7E7E7;stroke-width:0.5;" x1="445.65" x2="622.7955" y1="393.38" y2="393.38"/><text fill="#FFFFFF" font-family="sans-serif" font-size="14" lengthAdjust="spacing" textLength="167.1455" x="450.65" y="410.3751">createVehicle(): Vehicle</text></g><!--class TruckRental--><g id="elem_TruckRental"><rect codeLine="23" fill="#313139" height="64.2969" id="TruckRental" rx="2.5" ry="2.5" style="stroke:#E7E7E7;stroke-width:0.5;" width="179.1455" x="658.65" y="353.38"/><ellipse cx="701.9947" cy="369.38" fill="#2E5233" rx="11" ry="11" style="stroke:#E7E7E7;stroke-width:1;"/><path d="M704.9635,375.0206 Q704.3854,375.3175 703.7447,375.4581 Q703.1041,375.6144 702.401,375.6144 Q699.901,375.6144 698.5729,373.9738 Q697.2604,372.3175 697.2604,369.1925 Q697.2604,366.0675 698.5729,364.4113 Q699.901,362.755 702.401,362.755 Q703.1041,362.755 703.7447,362.9113 Q704.401,363.0675 704.9635,363.3644 L704.9635,366.0831 Q704.3385,365.505 703.7447,365.2394 Q703.151,364.9581 702.526,364.9581 Q701.1822,364.9581 700.4947,366.0363 Q699.8072,367.0988 699.8072,369.1925 Q699.8072,371.2863 700.4947,372.3644 Q701.1822,373.4269 702.526,373.4269 Q703.151,373.4269 703.7447,373.1613 Q704.3385,372.88 704.9635,372.3019 L704.9635,375.0206 Z " fill="#FFFFFF"/><text fill="#FFFFFF" font-family="sans-serif" font-size="14" lengthAdjust="spacing" textLength="84.1572" x="722.2936" y="374.2267">TruckRental</text><line style="stroke:#E7E7E7;stroke-width:0.5;" x1="659.65" x2="836.7955" y1="385.38" y2="385.38"/><line style="stroke:#E7E7E7;stroke-width:0.5;" x1="659.65" x2="836.7955" y1="393.38" y2="393.38"/><text fill="#FFFFFF" font-family="sans-serif" font-size="14" lengthAdjust="spacing" textLength="167.1455" x="664.65" y="410.3751">createVehicle(): Vehicle</text></g><!--class Vehicle--><g id="elem_Vehicle"><rect codeLine="27" fill="#313139" height="96.8906" id="Vehicle" rx="2.5" ry="2.5" style="stroke:#E7E7E7;stroke-width:0.5;" width="186.0771" x="873.18" y="337.08"/><ellipse cx="936.3919" cy="353.08" fill="#352866" rx="11" ry="11" style="stroke:#E7E7E7;stroke-width:1;"/><path d="M932.3138,348.8456 L932.3138,346.6894 L939.7044,346.6894 L939.7044,348.8456 L937.2357,348.8456 L937.2357,356.9238 L939.7044,356.9238 L939.7044,359.08 L932.3138,359.08 L932.3138,356.9238 L934.7825,356.9238 L934.7825,348.8456 L932.3138,348.8456 Z " fill="#FFFFFF"/><text fill="#FFFFFF" font-family="sans-serif" font-size="14" font-style="italic" lengthAdjust="spacing" textLength="51.1533" x="956.8919" y="357.9267">Vehicle</text><line style="stroke:#E7E7E7;stroke-width:0.5;" x1="874.18" x2="1058.2571" y1="369.08" y2="369.08"/><line style="stroke:#E7E7E7;stroke-width:0.5;" x1="874.18" x2="1058.2571" y1="377.08" y2="377.08"/><text fill="#FFFFFF" font-family="sans-serif" font-size="14" lengthAdjust="spacing" textLength="105.5674" x="879.18" y="394.0751">void Starting();</text><text fill="#FFFFFF" font-family="sans-serif" font-size="14" lengthAdjust="spacing" textLength="112.082" x="879.18" y="410.372">void Stopping();</text><text fill="#FFFFFF" font-family="sans-serif" font-size="14" lengthAdjust="spacing" textLength="174.0771" x="879.18" y="426.6689">Double DisplayingCost();</text></g><!--class Car--><g id="elem_Car"><rect codeLine="33" fill="#313139" height="96.8906" id="Car" rx="2.5" ry="2.5" style="stroke:#E7E7E7;stroke-width:0.5;" width="186.0771" x="652.18" y="510.27"/><ellipse cx="728.9134" cy="526.27" fill="#2E5233" rx="11" ry="11" style="stroke:#E7E7E7;stroke-width:1;"/><path d="M731.8821,531.9106 Q731.304,532.2075 730.6634,532.3481 Q730.0228,532.5044 729.3196,532.5044 Q726.8196,532.5044 725.4915,530.8638 Q724.179,529.2075 724.179,526.0825 Q724.179,522.9575 725.4915,521.3013 Q726.8196,519.645 729.3196,519.645 Q730.0228,519.645 730.6634,519.8013 Q731.3196,519.9575 731.8821,520.2544 L731.8821,522.9731 Q731.2571,522.395 730.6634,522.1294 Q730.0696,521.8481 729.4446,521.8481 Q728.1009,521.8481 727.4134,522.9263 Q726.7259,523.9888 726.7259,526.0825 Q726.7259,528.1763 727.4134,529.2544 Q728.1009,530.3169 729.4446,530.3169 Q730.0696,530.3169 730.6634,530.0513 Q731.2571,529.77 731.8821,529.1919 L731.8821,531.9106 Z " fill="#FFFFFF"/><text fill="#FFFFFF" font-family="sans-serif" font-size="14" lengthAdjust="spacing" textLength="24.1104" x="749.4134" y="531.1167">Car</text><line style="stroke:#E7E7E7;stroke-width:0.5;" x1="653.18" x2="837.2571" y1="542.27" y2="542.27"/><line style="stroke:#E7E7E7;stroke-width:0.5;" x1="653.18" x2="837.2571" y1="550.27" y2="550.27"/><text fill="#FFFFFF" font-family="sans-serif" font-size="14" lengthAdjust="spacing" textLength="118.665" x="658.18" y="567.2651">void Starting(){}</text><text fill="#FFFFFF" font-family="sans-serif" font-size="14" lengthAdjust="spacing" textLength="125.1797" x="658.18" y="583.562">void Stopping(){}</text><text fill="#FFFFFF" font-family="sans-serif" font-size="14" lengthAdjust="spacing" textLength="174.0771" x="658.18" y="599.8589">Double DisplayingCost();</text></g><!--class Bike--><g id="elem_Bike"><rect codeLine="39" fill="#313139" height="96.8906" id="Bike" rx="2.5" ry="2.5" style="stroke:#E7E7E7;stroke-width:0.5;" width="186.0771" x="873.18" y="510.27"/><ellipse cx="946.8612" cy="526.27" fill="#2E5233" rx="11" ry="11" style="stroke:#E7E7E7;stroke-width:1;"/><path d="M949.8299,531.9106 Q949.2518,532.2075 948.6112,532.3481 Q947.9705,532.5044 947.2674,532.5044 Q944.7674,532.5044 943.4393,530.8638 Q942.1268,529.2075 942.1268,526.0825 Q942.1268,522.9575 943.4393,521.3013 Q944.7674,519.645 947.2674,519.645 Q947.9705,519.645 948.6112,519.8013 Q949.2674,519.9575 949.8299,520.2544 L949.8299,522.9731 Q949.2049,522.395 948.6112,522.1294 Q948.0174,521.8481 947.3924,521.8481 Q946.0487,521.8481 945.3612,522.9263 Q944.6737,523.9888 944.6737,526.0825 Q944.6737,528.1763 945.3612,529.2544 Q946.0487,530.3169 947.3924,530.3169 Q948.0174,530.3169 948.6112,530.0513 Q949.2049,529.77 949.8299,529.1919 L949.8299,531.9106 Z " fill="#FFFFFF"/><text fill="#FFFFFF" font-family="sans-serif" font-size="14" lengthAdjust="spacing" textLength="30.2148" x="967.3612" y="531.1167">Bike</text><line style="stroke:#E7E7E7;stroke-width:0.5;" x1="874.18" x2="1058.2571" y1="542.27" y2="542.27"/><line style="stroke:#E7E7E7;stroke-width:0.5;" x1="874.18" x2="1058.2571" y1="550.27" y2="550.27"/><text fill="#FFFFFF" font-family="sans-serif" font-size="14" lengthAdjust="spacing" textLength="118.665" x="879.18" y="567.2651">void Starting(){}</text><text fill="#FFFFFF" font-family="sans-serif" font-size="14" lengthAdjust="spacing" textLength="125.1797" x="879.18" y="583.562">void Stopping(){}</text><text fill="#FFFFFF" font-family="sans-serif" font-size="14" lengthAdjust="spacing" textLength="174.0771" x="879.18" y="599.8589">Double DisplayingCost();</text></g><!--class Truck--><g id="elem_Truck"><rect codeLine="45" fill="#313139" height="96.8906" id="Truck" rx="2.5" ry="2.5" style="stroke:#E7E7E7;stroke-width:0.5;" width="186.0771" x="1094.18" y="510.27"/><ellipse cx="1163.4759" cy="526.27" fill="#2E5233" rx="11" ry="11" style="stroke:#E7E7E7;stroke-width:1;"/><path d="M1166.4446,531.9106 Q1165.8665,532.2075 1165.2259,532.3481 Q1164.5853,532.5044 1163.8821,532.5044 Q1161.3821,532.5044 1160.054,530.8638 Q1158.7415,529.2075 1158.7415,526.0825 Q1158.7415,522.9575 1160.054,521.3013 Q1161.3821,519.645 1163.8821,519.645 Q1164.5853,519.645 1165.2259,519.8013 Q1165.8821,519.9575 1166.4446,520.2544 L1166.4446,522.9731 Q1165.8196,522.395 1165.2259,522.1294 Q1164.6321,521.8481 1164.0071,521.8481 Q1162.6634,521.8481 1161.9759,522.9263 Q1161.2884,523.9888 1161.2884,526.0825 Q1161.2884,528.1763 1161.9759,529.2544 Q1162.6634,530.3169 1164.0071,530.3169 Q1164.6321,530.3169 1165.2259,530.0513 Q1165.8196,529.77 1166.4446,529.1919 L1166.4446,531.9106 Z " fill="#FFFFFF"/><text fill="#FFFFFF" font-family="sans-serif" font-size="14" lengthAdjust="spacing" textLength="38.9854" x="1183.9759" y="531.1167">Truck</text><line style="stroke:#E7E7E7;stroke-width:0.5;" x1="1095.18" x2="1279.2571" y1="542.27" y2="542.27"/><line style="stroke:#E7E7E7;stroke-width:0.5;" x1="1095.18" x2="1279.2571" y1="550.27" y2="550.27"/><text fill="#FFFFFF" font-family="sans-serif" font-size="14" lengthAdjust="spacing" textLength="118.665" x="1100.18" y="567.2651">void Starting(){}</text><text fill="#FFFFFF" font-family="sans-serif" font-size="14" lengthAdjust="spacing" textLength="125.1797" x="1100.18" y="583.562">void Stopping(){}</text><text fill="#FFFFFF" font-family="sans-serif" font-size="14" lengthAdjust="spacing" textLength="174.0771" x="1100.18" y="599.8589">Double DisplayingCost();</text></g><!--class VehicleRentalSystem--><g id="elem_VehicleRentalSystem"><rect codeLine="51" fill="#313139" height="113.1875" id="VehicleRentalSystem" rx="2.5" ry="2.5" style="stroke:#E7E7E7;stroke-width:0.5;" width="509.5059" x="63.46" y="7"/><ellipse cx="239.6973" cy="23" fill="#2E5233" rx="11" ry="11" style="stroke:#E7E7E7;stroke-width:1;"/><path d="M242.6661,28.6406 Q242.0879,28.9375 241.4473,29.0781 Q240.8067,29.2344 240.1036,29.2344 Q237.6036,29.2344 236.2754,27.5938 Q234.9629,25.9375 234.9629,22.8125 Q234.9629,19.6875 236.2754,18.0313 Q237.6036,16.375 240.1036,16.375 Q240.8067,16.375 241.4473,16.5313 Q242.1036,16.6875 242.6661,16.9844 L242.6661,19.7031 Q242.0411,19.125 241.4473,18.8594 Q240.8536,18.5781 240.2286,18.5781 Q238.8848,18.5781 238.1973,19.6563 Q237.5098,20.7188 237.5098,22.8125 Q237.5098,24.9063 238.1973,25.9844 Q238.8848,27.0469 240.2286,27.0469 Q240.8536,27.0469 241.4473,26.7813 Q242.0411,26.5 242.6661,25.9219 L242.6661,28.6406 Z " fill="#FFFFFF"/><text fill="#FFFFFF" font-family="sans-serif" font-size="14" lengthAdjust="spacing" textLength="148.5313" x="260.1973" y="27.8467">VehicleRentalSystem</text><line style="stroke:#E7E7E7;stroke-width:0.5;" x1="64.46" x2="571.9659" y1="39" y2="39"/><text fill="#FFFFFF" font-family="sans-serif" font-size="14" lengthAdjust="spacing" textLength="204.0869" x="69.46" y="55.9951">List&lt;RentalRecord&gt; records;</text><line style="stroke:#E7E7E7;stroke-width:0.5;" x1="64.46" x2="571.9659" y1="63.2969" y2="63.2969"/><text fill="#FFFFFF" font-family="sans-serif" font-size="14" lengthAdjust="spacing" textLength="215.2568" x="69.46" y="80.292">static main(String[] args): void</text><text fill="#FFFFFF" font-family="sans-serif" font-size="14" lengthAdjust="spacing" textLength="4.4502" x="69.46" y="96.5889">&#160;</text><text fill="#FFFFFF" font-family="sans-serif" font-size="14" lengthAdjust="spacing" textLength="497.5059" x="69.46" y="112.8857">static addRentalRecord(String rentalType, String customerName): void</text></g><!--reverse link Rental to CarRental--><g id="link_Rental_CarRental"><path d="M391.4413,276.007 C372.8813,304.277 358.11,326.79 340.87,353.06 " fill="none" id="Rental-backto-CarRental" style="stroke:#E7E7E7;stroke-width:1;"/><polygon fill="none" points="401.32,260.96,386.4256,272.714,396.4569,279.2999,401.32,260.96" style="stroke:#E7E7E7;stroke-width:1;"/></g><!--reverse link Rental to BikeRental--><g id="link_Rental_BikeRental"><path d="M462.995,276.0094 C481.545,304.2794 496.33,326.79 513.56,353.06 " fill="none" id="Rental-backto-BikeRental" style="stroke:#E7E7E7;stroke-width:1;"/><polygon fill="none" points="453.12,260.96,457.9785,279.3011,468.0115,272.7177,453.12,260.96" style="stroke:#E7E7E7;stroke-width:1;"/></g><!--reverse link Rental to TruckRental--><g id="link_Rental_TruckRental"><path d="M534.6839,268.6824 C573.0639,286.0824 601.56,299.84 641.22,320.79 C659.96,330.68 680.03,342.34 697.67,352.96 " fill="none" id="Rental-backto-TruckRental" style="stroke:#E7E7E7;stroke-width:1;"/><polygon fill="none" points="518.29,261.25,532.2065,274.147,537.1614,263.2177,518.29,261.25" style="stroke:#E7E7E7;stroke-width:1;"/></g><!--reverse link Vehicle to Car--><g id="link_Vehicle_Car"><path d="M890.1298,445.4627 C859.7398,469.0027 837.45,486.27 807.06,509.81 " fill="none" id="Vehicle-backto-Car" style="stroke:#E7E7E7;stroke-width:1;"/><polygon fill="none" points="904.36,434.44,886.4555,440.7193,893.804,450.2061,904.36,434.44" style="stroke:#E7E7E7;stroke-width:1;"/></g><!--reverse link Vehicle to Bike--><g id="link_Vehicle_Bike"><path d="M966.22,452.21 C966.22,475.86 966.22,486.34 966.22,509.99 " fill="none" id="Vehicle-backto-Bike" style="stroke:#E7E7E7;stroke-width:1;"/><polygon fill="none" points="966.22,434.21,960.22,452.21,972.22,452.21,966.22,434.21" style="stroke:#E7E7E7;stroke-width:1;"/></g><!--reverse link Vehicle to Truck--><g id="link_Vehicle_Truck"><path d="M1042.3002,445.4627 C1072.6902,469.0027 1094.99,486.27 1125.38,509.81 " fill="none" id="Vehicle-backto-Truck" style="stroke:#E7E7E7;stroke-width:1;"/><polygon fill="none" points="1028.07,434.44,1038.626,450.2061,1045.9745,440.7193,1028.07,434.44" style="stroke:#E7E7E7;stroke-width:1;"/></g><!--link Rental to Vehicle--><g id="link_Rental_Vehicle"><path codeLine="60" d="M560.41,241.99 C646.44,257.74 759.74,283.24 855.22,320.79 C866.59,325.26 872.8836,327.9686 884.1036,333.8386 " fill="none" id="Rental-to-Vehicle" style="stroke:#E7E7E7;stroke-width:1;"/><polygon fill="#E7E7E7" points="889.42,336.62,883.2997,328.9037,884.9897,334.3022,879.5912,335.9922,889.42,336.62" style="stroke:#E7E7E7;stroke-width:1;"/></g><!--link Rental to RentalRecord--><g id="link_Rental_RentalRecord"><path codeLine="61" d="M337.13,261.28 C298.61,278.81 253.36,300.1 213.22,320.79 C207.55,323.71 207.0463,323.9319 201.2163,327.0619 " fill="none" id="Rental-to-RentalRecord" style="stroke:#E7E7E7;stroke-width:1;"/><polygon fill="#E7E7E7" points="195.93,329.9,205.7515,329.167,200.3353,327.5349,201.9674,322.1186,195.93,329.9" style="stroke:#E7E7E7;stroke-width:1;"/></g><!--link VehicleRentalSystem to RentalRecord--><g id="link_VehicleRentalSystem_RentalRecord"><path codeLine="63" d="M280.17,120.69 C242.31,176.51 184.28,262.07 144.63,320.52 " fill="none" id="VehicleRentalSystem-RentalRecord" style="stroke:#E7E7E7;stroke-width:1;"/></g><!--link VehicleRentalSystem to Rental--><g id="link_VehicleRentalSystem_Rental"><path codeLine="64" d="M357.57,120.52 C371.47,140.27 386.8,162.06 399.54,180.15 " fill="none" id="VehicleRentalSystem-Rental" style="stroke:#E7E7E7;stroke-width:1;"/></g><!--SRC=[lLFBRi8m4BpdAtm4gVn0gJWKZgYgICIbwc7PRAb54aVs1ZL2_7ljs0IdIbkfbSWXJcOVCzu75c2Cs535K6m8bSvFYR3Fbjub5YIE_komjK8eLi2KoPA4OT3ilaPiLEMzPQMQdKrKQuaUw5xM6vl2-ZyxV3Az5qSby-IS91WfybfWPrW3ia1DDY98Sp7RI9qtnZTn7l7_DViIj3S8-c0hTiZtBKqV_oWFzAy4cMxmyCSCicBIRu3KDyd7k0AAr7L5Lll9T1w3gguZCBHa9KrTG6iDIsNO6UC2zRe2ooZ9wJp64j3VQLmTRy7JbViMH26rRsNQ6gRIqwobuOTu61T2TwUPNvV2hXHB52N8QfAojWGlhmBqtbpMuwidvFbWu7sGpUomhAtfJWG86yEg9Fq49LsoETbX1cUpHJzY4JJOdcJaSjPhwFIZpoS0]--></g></svg>
