<svg xmlns="http://www.w3.org/2000/svg" xmlns:xlink="http://www.w3.org/1999/xlink" contentStyleType="text/css" data-diagram-type="CLASS" height="707px" preserveAspectRatio="none" style="width:2185px;height:707px;background:#1B1B1B;" version="1.1" viewBox="0 0 2185 707" width="2185px" zoomAndPan="magnify"><defs/><g><rect fill="#1B1B1B" height="707" style="stroke:transparent;stroke-width:1;" width="2185" x="0" y="0"/><!--class Bulb--><g id="elem_Bulb"><rect codeLine="1" fill="#313139" height="80.5938" id="Bulb" rx="2.5" ry="2.5" style="stroke:#E7E7E7;stroke-width:0.5;" width="79.1563" x="322.56" y="430.67"/><ellipse cx="344.7161" cy="446.67" fill="#352866" rx="11" ry="11" style="stroke:#E7E7E7;stroke-width:1;"/><path d="M340.6379,442.4356 L340.6379,440.2794 L348.0286,440.2794 L348.0286,442.4356 L345.5598,442.4356 L345.5598,450.5138 L348.0286,450.5138 L348.0286,452.67 L340.6379,452.67 L340.6379,450.5138 L343.1067,450.5138 L343.1067,442.4356 L340.6379,442.4356 Z " fill="#FFFFFF"/><text fill="#FFFFFF" font-family="sans-serif" font-size="14" font-style="italic" lengthAdjust="spacing" textLength="31.2539" x="360.3063" y="451.5167">Bulb</text><line style="stroke:#E7E7E7;stroke-width:0.5;" x1="323.56" x2="400.7163" y1="462.67" y2="462.67"/><line style="stroke:#E7E7E7;stroke-width:0.5;" x1="323.56" x2="400.7163" y1="470.67" y2="470.67"/><text fill="#FFFFFF" font-family="sans-serif" font-size="14" lengthAdjust="spacing" textLength="67.1563" x="328.56" y="487.6651">on(): void</text><text fill="#FFFFFF" font-family="sans-serif" font-size="14" lengthAdjust="spacing" textLength="63.2119" x="328.56" y="503.962">of(): void</text></g><!--class SamsungBulb--><g id="elem_SamsungBulb"><rect codeLine="6" fill="#313139" height="80.5938" id="SamsungBulb" rx="2.5" ry="2.5" style="stroke:#E7E7E7;stroke-width:0.5;" width="128.2842" x="7" y="603.86"/><ellipse cx="22" cy="619.86" fill="#2E5233" rx="11" ry="11" style="stroke:#E7E7E7;stroke-width:1;"/><path d="M24.9688,625.5006 Q24.3906,625.7975 23.75,625.9381 Q23.1094,626.0944 22.4063,626.0944 Q19.9063,626.0944 18.5781,624.4538 Q17.2656,622.7975 17.2656,619.6725 Q17.2656,616.5475 18.5781,614.8913 Q19.9063,613.235 22.4063,613.235 Q23.1094,613.235 23.75,613.3913 Q24.4063,613.5475 24.9688,613.8444 L24.9688,616.5631 Q24.3438,615.985 23.75,615.7194 Q23.1563,615.4381 22.5313,615.4381 Q21.1875,615.4381 20.5,616.5163 Q19.8125,617.5788 19.8125,619.6725 Q19.8125,621.7663 20.5,622.8444 Q21.1875,623.9069 22.5313,623.9069 Q23.1563,623.9069 23.75,623.6413 Q24.3438,623.36 24.9688,622.7819 L24.9688,625.5006 Z " fill="#FFFFFF"/><text fill="#FFFFFF" font-family="sans-serif" font-size="14" lengthAdjust="spacing" textLength="96.2842" x="36" y="624.7067">SamsungBulb</text><line style="stroke:#E7E7E7;stroke-width:0.5;" x1="8" x2="134.2842" y1="635.86" y2="635.86"/><line style="stroke:#E7E7E7;stroke-width:0.5;" x1="8" x2="134.2842" y1="643.86" y2="643.86"/><text fill="#FFFFFF" font-family="sans-serif" font-size="14" lengthAdjust="spacing" textLength="67.1563" x="13" y="660.8551">on(): void</text><text fill="#FFFFFF" font-family="sans-serif" font-size="14" lengthAdjust="spacing" textLength="63.2119" x="13" y="677.152">of(): void</text></g><!--class XiaomiBulb--><g id="elem_XiaomiBulb"><rect codeLine="11" fill="#313139" height="80.5938" id="XiaomiBulb" rx="2.5" ry="2.5" style="stroke:#E7E7E7;stroke-width:0.5;" width="111.4063" x="170.44" y="603.86"/><ellipse cx="185.44" cy="619.86" fill="#2E5233" rx="11" ry="11" style="stroke:#E7E7E7;stroke-width:1;"/><path d="M188.4088,625.5006 Q187.8306,625.7975 187.19,625.9381 Q186.5494,626.0944 185.8463,626.0944 Q183.3463,626.0944 182.0181,624.4538 Q180.7056,622.7975 180.7056,619.6725 Q180.7056,616.5475 182.0181,614.8913 Q183.3463,613.235 185.8463,613.235 Q186.5494,613.235 187.19,613.3913 Q187.8463,613.5475 188.4088,613.8444 L188.4088,616.5631 Q187.7838,615.985 187.19,615.7194 Q186.5963,615.4381 185.9713,615.4381 Q184.6275,615.4381 183.94,616.5163 Q183.2525,617.5788 183.2525,619.6725 Q183.2525,621.7663 183.94,622.8444 Q184.6275,623.9069 185.9713,623.9069 Q186.5963,623.9069 187.19,623.6413 Q187.7838,623.36 188.4088,622.7819 L188.4088,625.5006 Z " fill="#FFFFFF"/><text fill="#FFFFFF" font-family="sans-serif" font-size="14" lengthAdjust="spacing" textLength="79.4063" x="199.44" y="624.7067">XiaomiBulb</text><line style="stroke:#E7E7E7;stroke-width:0.5;" x1="171.44" x2="280.8463" y1="635.86" y2="635.86"/><line style="stroke:#E7E7E7;stroke-width:0.5;" x1="171.44" x2="280.8463" y1="643.86" y2="643.86"/><text fill="#FFFFFF" font-family="sans-serif" font-size="14" lengthAdjust="spacing" textLength="67.1563" x="176.44" y="660.8551">on(): void</text><text fill="#FFFFFF" font-family="sans-serif" font-size="14" lengthAdjust="spacing" textLength="68.1406" x="176.44" y="677.152">off(): void</text></g><!--class LGBulb--><g id="elem_LGBulb"><rect codeLine="16" fill="#313139" height="80.5938" id="LGBulb" rx="2.5" ry="2.5" style="stroke:#E7E7E7;stroke-width:0.5;" width="81.9023" x="317.19" y="603.86"/><ellipse cx="332.19" cy="619.86" fill="#2E5233" rx="11" ry="11" style="stroke:#E7E7E7;stroke-width:1;"/><path d="M335.1588,625.5006 Q334.5806,625.7975 333.94,625.9381 Q333.2994,626.0944 332.5963,626.0944 Q330.0963,626.0944 328.7681,624.4538 Q327.4556,622.7975 327.4556,619.6725 Q327.4556,616.5475 328.7681,614.8913 Q330.0963,613.235 332.5963,613.235 Q333.2994,613.235 333.94,613.3913 Q334.5963,613.5475 335.1588,613.8444 L335.1588,616.5631 Q334.5338,615.985 333.94,615.7194 Q333.3463,615.4381 332.7213,615.4381 Q331.3775,615.4381 330.69,616.5163 Q330.0025,617.5788 330.0025,619.6725 Q330.0025,621.7663 330.69,622.8444 Q331.3775,623.9069 332.7213,623.9069 Q333.3463,623.9069 333.94,623.6413 Q334.5338,623.36 335.1588,622.7819 L335.1588,625.5006 Z " fill="#FFFFFF"/><text fill="#FFFFFF" font-family="sans-serif" font-size="14" lengthAdjust="spacing" textLength="49.9023" x="346.19" y="624.7067">LGBulb</text><line style="stroke:#E7E7E7;stroke-width:0.5;" x1="318.19" x2="398.0923" y1="635.86" y2="635.86"/><line style="stroke:#E7E7E7;stroke-width:0.5;" x1="318.19" x2="398.0923" y1="643.86" y2="643.86"/><text fill="#FFFFFF" font-family="sans-serif" font-size="14" lengthAdjust="spacing" textLength="67.1563" x="323.19" y="660.8551">on(): void</text><text fill="#FFFFFF" font-family="sans-serif" font-size="14" lengthAdjust="spacing" textLength="68.1406" x="323.19" y="677.152">off(): void</text></g><!--class Freezer--><g id="elem_Freezer"><rect codeLine="22" fill="#313139" height="113.1875" id="Freezer" rx="2.5" ry="2.5" style="stroke:#E7E7E7;stroke-width:0.5;" width="131.4443" x="1219.42" y="414.37"/><ellipse cx="1255.4311" cy="430.37" fill="#352866" rx="11" ry="11" style="stroke:#E7E7E7;stroke-width:1;"/><path d="M1251.353,426.1356 L1251.353,423.9794 L1258.7436,423.9794 L1258.7436,426.1356 L1256.2749,426.1356 L1256.2749,434.2138 L1258.7436,434.2138 L1258.7436,436.37 L1251.353,436.37 L1251.353,434.2138 L1253.8218,434.2138 L1253.8218,426.1356 L1251.353,426.1356 Z " fill="#FFFFFF"/><text fill="#FFFFFF" font-family="sans-serif" font-size="14" font-style="italic" lengthAdjust="spacing" textLength="52.7529" x="1274.1003" y="435.2167">Freezer</text><line style="stroke:#E7E7E7;stroke-width:0.5;" x1="1220.42" x2="1349.8643" y1="446.37" y2="446.37"/><line style="stroke:#E7E7E7;stroke-width:0.5;" x1="1220.42" x2="1349.8643" y1="454.37" y2="454.37"/><text fill="#FFFFFF" font-family="sans-serif" font-size="14" lengthAdjust="spacing" textLength="67.1563" x="1225.42" y="471.3651">on(): void</text><text fill="#FFFFFF" font-family="sans-serif" font-size="14" lengthAdjust="spacing" textLength="63.2119" x="1225.42" y="487.662">of(): void</text><text fill="#FFFFFF" font-family="sans-serif" font-size="14" lengthAdjust="spacing" textLength="118.3232" x="1225.42" y="503.9589">openDoor(): void</text><text fill="#FFFFFF" font-family="sans-serif" font-size="14" lengthAdjust="spacing" textLength="119.4443" x="1225.42" y="520.2557">closeDoor(): void</text></g><!--class SamsungFreezer--><g id="elem_SamsungFreezer"><rect codeLine="29" fill="#313139" height="113.1875" id="SamsungFreezer" rx="2.5" ry="2.5" style="stroke:#E7E7E7;stroke-width:0.5;" width="149.7832" x="1123.25" y="587.56"/><ellipse cx="1138.25" cy="603.56" fill="#2E5233" rx="11" ry="11" style="stroke:#E7E7E7;stroke-width:1;"/><path d="M1141.2188,609.2006 Q1140.6406,609.4975 1140,609.6381 Q1139.3594,609.7944 1138.6563,609.7944 Q1136.1563,609.7944 1134.8281,608.1538 Q1133.5156,606.4975 1133.5156,603.3725 Q1133.5156,600.2475 1134.8281,598.5913 Q1136.1563,596.935 1138.6563,596.935 Q1139.3594,596.935 1140,597.0913 Q1140.6563,597.2475 1141.2188,597.5444 L1141.2188,600.2631 Q1140.5938,599.685 1140,599.4194 Q1139.4063,599.1381 1138.7813,599.1381 Q1137.4375,599.1381 1136.75,600.2163 Q1136.0625,601.2788 1136.0625,603.3725 Q1136.0625,605.4663 1136.75,606.5444 Q1137.4375,607.6069 1138.7813,607.6069 Q1139.4063,607.6069 1140,607.3413 Q1140.5938,607.06 1141.2188,606.4819 L1141.2188,609.2006 Z " fill="#FFFFFF"/><text fill="#FFFFFF" font-family="sans-serif" font-size="14" lengthAdjust="spacing" textLength="117.7832" x="1152.25" y="608.4067">SamsungFreezer</text><line style="stroke:#E7E7E7;stroke-width:0.5;" x1="1124.25" x2="1272.0332" y1="619.56" y2="619.56"/><line style="stroke:#E7E7E7;stroke-width:0.5;" x1="1124.25" x2="1272.0332" y1="627.56" y2="627.56"/><text fill="#FFFFFF" font-family="sans-serif" font-size="14" lengthAdjust="spacing" textLength="67.1563" x="1129.25" y="644.5551">on(): void</text><text fill="#FFFFFF" font-family="sans-serif" font-size="14" lengthAdjust="spacing" textLength="63.2119" x="1129.25" y="660.852">of(): void</text><text fill="#FFFFFF" font-family="sans-serif" font-size="14" lengthAdjust="spacing" textLength="118.3232" x="1129.25" y="677.1489">openDoor(): void</text><text fill="#FFFFFF" font-family="sans-serif" font-size="14" lengthAdjust="spacing" textLength="119.4443" x="1129.25" y="693.4457">closeDoor(): void</text></g><!--class XiaomiFreezer--><g id="elem_XiaomiFreezer"><rect codeLine="36" fill="#313139" height="113.1875" id="XiaomiFreezer" rx="2.5" ry="2.5" style="stroke:#E7E7E7;stroke-width:0.5;" width="132.9053" x="1307.69" y="587.56"/><ellipse cx="1322.69" cy="603.56" fill="#2E5233" rx="11" ry="11" style="stroke:#E7E7E7;stroke-width:1;"/><path d="M1325.6588,609.2006 Q1325.0806,609.4975 1324.44,609.6381 Q1323.7994,609.7944 1323.0963,609.7944 Q1320.5963,609.7944 1319.2681,608.1538 Q1317.9556,606.4975 1317.9556,603.3725 Q1317.9556,600.2475 1319.2681,598.5913 Q1320.5963,596.935 1323.0963,596.935 Q1323.7994,596.935 1324.44,597.0913 Q1325.0963,597.2475 1325.6588,597.5444 L1325.6588,600.2631 Q1325.0338,599.685 1324.44,599.4194 Q1323.8463,599.1381 1323.2213,599.1381 Q1321.8775,599.1381 1321.19,600.2163 Q1320.5025,601.2788 1320.5025,603.3725 Q1320.5025,605.4663 1321.19,606.5444 Q1321.8775,607.6069 1323.2213,607.6069 Q1323.8463,607.6069 1324.44,607.3413 Q1325.0338,607.06 1325.6588,606.4819 L1325.6588,609.2006 Z " fill="#FFFFFF"/><text fill="#FFFFFF" font-family="sans-serif" font-size="14" lengthAdjust="spacing" textLength="100.9053" x="1336.69" y="608.4067">XiaomiFreezer</text><line style="stroke:#E7E7E7;stroke-width:0.5;" x1="1308.69" x2="1439.5953" y1="619.56" y2="619.56"/><line style="stroke:#E7E7E7;stroke-width:0.5;" x1="1308.69" x2="1439.5953" y1="627.56" y2="627.56"/><text fill="#FFFFFF" font-family="sans-serif" font-size="14" lengthAdjust="spacing" textLength="67.1563" x="1313.69" y="644.5551">on(): void</text><text fill="#FFFFFF" font-family="sans-serif" font-size="14" lengthAdjust="spacing" textLength="68.1406" x="1313.69" y="660.852">off(): void</text><text fill="#FFFFFF" font-family="sans-serif" font-size="14" lengthAdjust="spacing" textLength="118.3232" x="1313.69" y="677.1489">openDoor(): void</text><text fill="#FFFFFF" font-family="sans-serif" font-size="14" lengthAdjust="spacing" textLength="119.4443" x="1313.69" y="693.4457">closeDoor(): void</text></g><!--class LGFreezer--><g id="elem_LGFreezer"><rect codeLine="43" fill="#313139" height="113.1875" id="LGFreezer" rx="2.5" ry="2.5" style="stroke:#E7E7E7;stroke-width:0.5;" width="131.4443" x="1475.42" y="587.56"/><ellipse cx="1503.0393" cy="603.56" fill="#2E5233" rx="11" ry="11" style="stroke:#E7E7E7;stroke-width:1;"/><path d="M1506.0081,609.2006 Q1505.43,609.4975 1504.7893,609.6381 Q1504.1487,609.7944 1503.4456,609.7944 Q1500.9456,609.7944 1499.6175,608.1538 Q1498.305,606.4975 1498.305,603.3725 Q1498.305,600.2475 1499.6175,598.5913 Q1500.9456,596.935 1503.4456,596.935 Q1504.1487,596.935 1504.7893,597.0913 Q1505.4456,597.2475 1506.0081,597.5444 L1506.0081,600.2631 Q1505.3831,599.685 1504.7893,599.4194 Q1504.1956,599.1381 1503.5706,599.1381 Q1502.2268,599.1381 1501.5393,600.2163 Q1500.8518,601.2788 1500.8518,603.3725 Q1500.8518,605.4663 1501.5393,606.5444 Q1502.2268,607.6069 1503.5706,607.6069 Q1504.1956,607.6069 1504.7893,607.3413 Q1505.3831,607.06 1506.0081,606.4819 L1506.0081,609.2006 Z " fill="#FFFFFF"/><text fill="#FFFFFF" font-family="sans-serif" font-size="14" lengthAdjust="spacing" textLength="71.4014" x="1519.8436" y="608.4067">LGFreezer</text><line style="stroke:#E7E7E7;stroke-width:0.5;" x1="1476.42" x2="1605.8643" y1="619.56" y2="619.56"/><line style="stroke:#E7E7E7;stroke-width:0.5;" x1="1476.42" x2="1605.8643" y1="627.56" y2="627.56"/><text fill="#FFFFFF" font-family="sans-serif" font-size="14" lengthAdjust="spacing" textLength="67.1563" x="1481.42" y="644.5551">on(): void</text><text fill="#FFFFFF" font-family="sans-serif" font-size="14" lengthAdjust="spacing" textLength="68.1406" x="1481.42" y="660.852">off(): void</text><text fill="#FFFFFF" font-family="sans-serif" font-size="14" lengthAdjust="spacing" textLength="118.3232" x="1481.42" y="677.1489">openDoor(): void</text><text fill="#FFFFFF" font-family="sans-serif" font-size="14" lengthAdjust="spacing" textLength="119.4443" x="1481.42" y="693.4457">closeDoor(): void</text></g><!--class Television--><g id="elem_Television"><rect codeLine="50" fill="#313139" height="80.5938" id="Television" rx="2.5" ry="2.5" style="stroke:#E7E7E7;stroke-width:0.5;" width="149.6211" x="1580.33" y="430.67"/><ellipse cx="1616.5503" cy="446.67" fill="#352866" rx="11" ry="11" style="stroke:#E7E7E7;stroke-width:1;"/><path d="M1612.4722,442.4356 L1612.4722,440.2794 L1619.8628,440.2794 L1619.8628,442.4356 L1617.3941,442.4356 L1617.3941,450.5138 L1619.8628,450.5138 L1619.8628,452.67 L1612.4722,452.67 L1612.4722,450.5138 L1614.9409,450.5138 L1614.9409,442.4356 L1612.4722,442.4356 Z " fill="#FFFFFF"/><text fill="#FFFFFF" font-family="sans-serif" font-size="14" font-style="italic" lengthAdjust="spacing" textLength="70.4648" x="1635.2659" y="451.5167">Television</text><line style="stroke:#E7E7E7;stroke-width:0.5;" x1="1581.33" x2="1728.9511" y1="462.67" y2="462.67"/><line style="stroke:#E7E7E7;stroke-width:0.5;" x1="1581.33" x2="1728.9511" y1="470.67" y2="470.67"/><text fill="#FFFFFF" font-family="sans-serif" font-size="14" lengthAdjust="spacing" textLength="137.6211" x="1586.33" y="487.6651">onTelevision(): void</text><text fill="#FFFFFF" font-family="sans-serif" font-size="14" lengthAdjust="spacing" textLength="133.6768" x="1586.33" y="503.962">ofTelevision(): void</text></g><!--class SamsungTelevision--><g id="elem_SamsungTelevision"><rect codeLine="55" fill="#313139" height="80.5938" id="SamsungTelevision" rx="2.5" ry="2.5" style="stroke:#E7E7E7;stroke-width:0.5;" width="167.4951" x="1641.39" y="603.86"/><ellipse cx="1656.39" cy="619.86" fill="#2E5233" rx="11" ry="11" style="stroke:#E7E7E7;stroke-width:1;"/><path d="M1659.3588,625.5006 Q1658.7806,625.7975 1658.14,625.9381 Q1657.4994,626.0944 1656.7963,626.0944 Q1654.2963,626.0944 1652.9681,624.4538 Q1651.6556,622.7975 1651.6556,619.6725 Q1651.6556,616.5475 1652.9681,614.8913 Q1654.2963,613.235 1656.7963,613.235 Q1657.4994,613.235 1658.14,613.3913 Q1658.7963,613.5475 1659.3588,613.8444 L1659.3588,616.5631 Q1658.7338,615.985 1658.14,615.7194 Q1657.5463,615.4381 1656.9213,615.4381 Q1655.5775,615.4381 1654.89,616.5163 Q1654.2025,617.5788 1654.2025,619.6725 Q1654.2025,621.7663 1654.89,622.8444 Q1655.5775,623.9069 1656.9213,623.9069 Q1657.5463,623.9069 1658.14,623.6413 Q1658.7338,623.36 1659.3588,622.7819 L1659.3588,625.5006 Z " fill="#FFFFFF"/><text fill="#FFFFFF" font-family="sans-serif" font-size="14" lengthAdjust="spacing" textLength="135.4951" x="1670.39" y="624.7067">SamsungTelevision</text><line style="stroke:#E7E7E7;stroke-width:0.5;" x1="1642.39" x2="1807.8851" y1="635.86" y2="635.86"/><line style="stroke:#E7E7E7;stroke-width:0.5;" x1="1642.39" x2="1807.8851" y1="643.86" y2="643.86"/><text fill="#FFFFFF" font-family="sans-serif" font-size="14" lengthAdjust="spacing" textLength="137.6211" x="1647.39" y="660.8551">onTelevision(): void</text><text fill="#FFFFFF" font-family="sans-serif" font-size="14" lengthAdjust="spacing" textLength="133.6768" x="1647.39" y="677.152">ofTelevision(): void</text></g><!--class XiaomiTelevision--><g id="elem_XiaomiTelevision"><rect codeLine="60" fill="#313139" height="80.5938" id="XiaomiTelevision" rx="2.5" ry="2.5" style="stroke:#E7E7E7;stroke-width:0.5;" width="150.6172" x="1843.83" y="603.86"/><ellipse cx="1858.83" cy="619.86" fill="#2E5233" rx="11" ry="11" style="stroke:#E7E7E7;stroke-width:1;"/><path d="M1861.7988,625.5006 Q1861.2206,625.7975 1860.58,625.9381 Q1859.9394,626.0944 1859.2363,626.0944 Q1856.7363,626.0944 1855.4081,624.4538 Q1854.0956,622.7975 1854.0956,619.6725 Q1854.0956,616.5475 1855.4081,614.8913 Q1856.7363,613.235 1859.2363,613.235 Q1859.9394,613.235 1860.58,613.3913 Q1861.2363,613.5475 1861.7988,613.8444 L1861.7988,616.5631 Q1861.1738,615.985 1860.58,615.7194 Q1859.9863,615.4381 1859.3613,615.4381 Q1858.0175,615.4381 1857.33,616.5163 Q1856.6425,617.5788 1856.6425,619.6725 Q1856.6425,621.7663 1857.33,622.8444 Q1858.0175,623.9069 1859.3613,623.9069 Q1859.9863,623.9069 1860.58,623.6413 Q1861.1738,623.36 1861.7988,622.7819 L1861.7988,625.5006 Z " fill="#FFFFFF"/><text fill="#FFFFFF" font-family="sans-serif" font-size="14" lengthAdjust="spacing" textLength="118.6172" x="1872.83" y="624.7067">XiaomiTelevision</text><line style="stroke:#E7E7E7;stroke-width:0.5;" x1="1844.83" x2="1993.4472" y1="635.86" y2="635.86"/><line style="stroke:#E7E7E7;stroke-width:0.5;" x1="1844.83" x2="1993.4472" y1="643.86" y2="643.86"/><text fill="#FFFFFF" font-family="sans-serif" font-size="14" lengthAdjust="spacing" textLength="137.6211" x="1849.83" y="660.8551">onTelevision(): void</text><text fill="#FFFFFF" font-family="sans-serif" font-size="14" lengthAdjust="spacing" textLength="133.6768" x="1849.83" y="677.152">ofTelevision(): void</text></g><!--class LGTelevision--><g id="elem_LGTelevision"><rect codeLine="65" fill="#313139" height="80.5938" id="LGTelevision" rx="2.5" ry="2.5" style="stroke:#E7E7E7;stroke-width:0.5;" width="149.6211" x="2029.33" y="603.86"/><ellipse cx="2057.1585" cy="619.86" fill="#2E5233" rx="11" ry="11" style="stroke:#E7E7E7;stroke-width:1;"/><path d="M2060.1273,625.5006 Q2059.5491,625.7975 2058.9085,625.9381 Q2058.2679,626.0944 2057.5648,626.0944 Q2055.0648,626.0944 2053.7366,624.4538 Q2052.4241,622.7975 2052.4241,619.6725 Q2052.4241,616.5475 2053.7366,614.8913 Q2055.0648,613.235 2057.5648,613.235 Q2058.2679,613.235 2058.9085,613.3913 Q2059.5648,613.5475 2060.1273,613.8444 L2060.1273,616.5631 Q2059.5023,615.985 2058.9085,615.7194 Q2058.3148,615.4381 2057.6898,615.4381 Q2056.346,615.4381 2055.6585,616.5163 Q2054.971,617.5788 2054.971,619.6725 Q2054.971,621.7663 2055.6585,622.8444 Q2056.346,623.9069 2057.6898,623.9069 Q2058.3148,623.9069 2058.9085,623.6413 Q2059.5023,623.36 2060.1273,622.7819 L2060.1273,625.5006 Z " fill="#FFFFFF"/><text fill="#FFFFFF" font-family="sans-serif" font-size="14" lengthAdjust="spacing" textLength="89.1133" x="2074.0093" y="624.7067">LGTelevision</text><line style="stroke:#E7E7E7;stroke-width:0.5;" x1="2030.33" x2="2177.9511" y1="635.86" y2="635.86"/><line style="stroke:#E7E7E7;stroke-width:0.5;" x1="2030.33" x2="2177.9511" y1="643.86" y2="643.86"/><text fill="#FFFFFF" font-family="sans-serif" font-size="14" lengthAdjust="spacing" textLength="137.6211" x="2035.33" y="660.8551">onTelevision(): void</text><text fill="#FFFFFF" font-family="sans-serif" font-size="14" lengthAdjust="spacing" textLength="133.6768" x="2035.33" y="677.152">ofTelevision(): void</text></g><!--class WashingMachine--><g id="elem_WashingMachine"><rect codeLine="70" fill="#313139" height="96.8906" id="WashingMachine" rx="2.5" ry="2.5" style="stroke:#E7E7E7;stroke-width:0.5;" width="154.5635" x="724.86" y="422.52"/><ellipse cx="741.5343" cy="438.52" fill="#352866" rx="11" ry="11" style="stroke:#E7E7E7;stroke-width:1;"/><path d="M737.4562,434.2856 L737.4562,432.1294 L744.8468,432.1294 L744.8468,434.2856 L742.3781,434.2856 L742.3781,442.3638 L744.8468,442.3638 L744.8468,444.52 L737.4562,444.52 L737.4562,442.3638 L739.9249,442.3638 L739.9249,434.2856 L737.4562,434.2856 Z " fill="#FFFFFF"/><text fill="#FFFFFF" font-family="sans-serif" font-size="14" font-style="italic" lengthAdjust="spacing" textLength="118.8428" x="755.9064" y="443.3667">WashingMachine</text><line style="stroke:#E7E7E7;stroke-width:0.5;" x1="725.86" x2="878.4235" y1="454.52" y2="454.52"/><text fill="#FFFFFF" font-family="sans-serif" font-size="14" lengthAdjust="spacing" textLength="107.3994" x="730.86" y="471.5151">openDoor: void</text><text fill="#FFFFFF" font-family="sans-serif" font-size="14" lengthAdjust="spacing" textLength="108.5205" x="730.86" y="487.812">closeDoor: void</text><line style="stroke:#E7E7E7;stroke-width:0.5;" x1="725.86" x2="878.4235" y1="495.1138" y2="495.1138"/><text fill="#FFFFFF" font-family="sans-serif" font-size="14" lengthAdjust="spacing" textLength="142.5635" x="730.86" y="512.1089">startWashing(): void</text></g><!--class SamsungWashingMachine--><g id="elem_SamsungWashingMachine"><rect codeLine="76" fill="#313139" height="96.8906" id="SamsungWashingMachine" rx="2.5" ry="2.5" style="stroke:#E7E7E7;stroke-width:0.5;" width="215.873" x="434.21" y="595.71"/><ellipse cx="449.21" cy="611.71" fill="#2E5233" rx="11" ry="11" style="stroke:#E7E7E7;stroke-width:1;"/><path d="M452.1788,617.3506 Q451.6006,617.6475 450.96,617.7881 Q450.3194,617.9444 449.6163,617.9444 Q447.1163,617.9444 445.7881,616.3038 Q444.4756,614.6475 444.4756,611.5225 Q444.4756,608.3975 445.7881,606.7413 Q447.1163,605.085 449.6163,605.085 Q450.3194,605.085 450.96,605.2413 Q451.6163,605.3975 452.1788,605.6944 L452.1788,608.4131 Q451.5538,607.835 450.96,607.5694 Q450.3663,607.2881 449.7413,607.2881 Q448.3975,607.2881 447.71,608.3663 Q447.0225,609.4288 447.0225,611.5225 Q447.0225,613.6163 447.71,614.6944 Q448.3975,615.7569 449.7413,615.7569 Q450.3663,615.7569 450.96,615.4913 Q451.5538,615.21 452.1788,614.6319 L452.1788,617.3506 Z " fill="#FFFFFF"/><text fill="#FFFFFF" font-family="sans-serif" font-size="14" lengthAdjust="spacing" textLength="183.873" x="463.21" y="616.5567">SamsungWashingMachine</text><line style="stroke:#E7E7E7;stroke-width:0.5;" x1="435.21" x2="649.083" y1="627.71" y2="627.71"/><text fill="#FFFFFF" font-family="sans-serif" font-size="14" lengthAdjust="spacing" textLength="107.3994" x="440.21" y="644.7051">openDoor: void</text><text fill="#FFFFFF" font-family="sans-serif" font-size="14" lengthAdjust="spacing" textLength="108.5205" x="440.21" y="661.002">closeDoor: void</text><line style="stroke:#E7E7E7;stroke-width:0.5;" x1="435.21" x2="649.083" y1="668.3038" y2="668.3038"/><text fill="#FFFFFF" font-family="sans-serif" font-size="14" lengthAdjust="spacing" textLength="142.5635" x="440.21" y="685.2989">startWashing(): void</text></g><!--class XiaomiWashingMachine--><g id="elem_XiaomiWashingMachine"><rect codeLine="82" fill="#313139" height="96.8906" id="XiaomiWashingMachine" rx="2.5" ry="2.5" style="stroke:#E7E7E7;stroke-width:0.5;" width="198.9951" x="684.64" y="595.71"/><ellipse cx="699.64" cy="611.71" fill="#2E5233" rx="11" ry="11" style="stroke:#E7E7E7;stroke-width:1;"/><path d="M702.6088,617.3506 Q702.0306,617.6475 701.39,617.7881 Q700.7494,617.9444 700.0463,617.9444 Q697.5463,617.9444 696.2181,616.3038 Q694.9056,614.6475 694.9056,611.5225 Q694.9056,608.3975 696.2181,606.7413 Q697.5463,605.085 700.0463,605.085 Q700.7494,605.085 701.39,605.2413 Q702.0463,605.3975 702.6088,605.6944 L702.6088,608.4131 Q701.9838,607.835 701.39,607.5694 Q700.7963,607.2881 700.1713,607.2881 Q698.8275,607.2881 698.14,608.3663 Q697.4525,609.4288 697.4525,611.5225 Q697.4525,613.6163 698.14,614.6944 Q698.8275,615.7569 700.1713,615.7569 Q700.7963,615.7569 701.39,615.4913 Q701.9838,615.21 702.6088,614.6319 L702.6088,617.3506 Z " fill="#FFFFFF"/><text fill="#FFFFFF" font-family="sans-serif" font-size="14" lengthAdjust="spacing" textLength="166.9951" x="713.64" y="616.5567">XiaomiWashingMachine</text><line style="stroke:#E7E7E7;stroke-width:0.5;" x1="685.64" x2="882.6351" y1="627.71" y2="627.71"/><text fill="#FFFFFF" font-family="sans-serif" font-size="14" lengthAdjust="spacing" textLength="107.3994" x="690.64" y="644.7051">openDoor: void</text><text fill="#FFFFFF" font-family="sans-serif" font-size="14" lengthAdjust="spacing" textLength="108.5205" x="690.64" y="661.002">closeDoor: void</text><line style="stroke:#E7E7E7;stroke-width:0.5;" x1="685.64" x2="882.6351" y1="668.3038" y2="668.3038"/><text fill="#FFFFFF" font-family="sans-serif" font-size="14" lengthAdjust="spacing" textLength="142.5635" x="690.64" y="685.2989">startWashing(): void</text></g><!--class LGWashingMachine--><g id="elem_LGWashingMachine"><rect codeLine="88" fill="#313139" height="96.8906" id="LGWashingMachine" rx="2.5" ry="2.5" style="stroke:#E7E7E7;stroke-width:0.5;" width="169.4912" x="918.4" y="595.71"/><ellipse cx="933.4" cy="611.71" fill="#2E5233" rx="11" ry="11" style="stroke:#E7E7E7;stroke-width:1;"/><path d="M936.3688,617.3506 Q935.7906,617.6475 935.15,617.7881 Q934.5094,617.9444 933.8063,617.9444 Q931.3063,617.9444 929.9781,616.3038 Q928.6656,614.6475 928.6656,611.5225 Q928.6656,608.3975 929.9781,606.7413 Q931.3063,605.085 933.8063,605.085 Q934.5094,605.085 935.15,605.2413 Q935.8063,605.3975 936.3688,605.6944 L936.3688,608.4131 Q935.7438,607.835 935.15,607.5694 Q934.5563,607.2881 933.9313,607.2881 Q932.5875,607.2881 931.9,608.3663 Q931.2125,609.4288 931.2125,611.5225 Q931.2125,613.6163 931.9,614.6944 Q932.5875,615.7569 933.9313,615.7569 Q934.5563,615.7569 935.15,615.4913 Q935.7438,615.21 936.3688,614.6319 L936.3688,617.3506 Z " fill="#FFFFFF"/><text fill="#FFFFFF" font-family="sans-serif" font-size="14" lengthAdjust="spacing" textLength="137.4912" x="947.4" y="616.5567">LGWashingMachine</text><line style="stroke:#E7E7E7;stroke-width:0.5;" x1="919.4" x2="1086.8912" y1="627.71" y2="627.71"/><text fill="#FFFFFF" font-family="sans-serif" font-size="14" lengthAdjust="spacing" textLength="107.3994" x="924.4" y="644.7051">openDoor: void</text><text fill="#FFFFFF" font-family="sans-serif" font-size="14" lengthAdjust="spacing" textLength="108.5205" x="924.4" y="661.002">closeDoor: void</text><line style="stroke:#E7E7E7;stroke-width:0.5;" x1="919.4" x2="1086.8912" y1="668.3038" y2="668.3038"/><text fill="#FFFFFF" font-family="sans-serif" font-size="14" lengthAdjust="spacing" textLength="142.5635" x="924.4" y="685.2989">startWashing(): void</text></g><!--class AbstractFactory--><g id="elem_AbstractFactory"><rect codeLine="94" fill="#313139" height="113.1875" id="AbstractFactory" rx="2.5" ry="2.5" style="stroke:#E7E7E7;stroke-width:0.5;" width="305.6377" x="817.32" y="7"/><ellipse cx="910.2922" cy="23" fill="#2E5233" rx="11" ry="11" style="stroke:#E7E7E7;stroke-width:1;"/><path d="M913.2609,28.6406 Q912.6828,28.9375 912.0422,29.0781 Q911.4015,29.2344 910.6984,29.2344 Q908.1984,29.2344 906.8703,27.5938 Q905.5578,25.9375 905.5578,22.8125 Q905.5578,19.6875 906.8703,18.0313 Q908.1984,16.375 910.6984,16.375 Q911.4015,16.375 912.0422,16.5313 Q912.6984,16.6875 913.2609,16.9844 L913.2609,19.7031 Q912.6359,19.125 912.0422,18.8594 Q911.4484,18.5781 910.8234,18.5781 Q909.4797,18.5781 908.7922,19.6563 Q908.1047,20.7188 908.1047,22.8125 Q908.1047,24.9063 908.7922,25.9844 Q909.4797,27.0469 910.8234,27.0469 Q911.4484,27.0469 912.0422,26.7813 Q912.6359,26.5 913.2609,25.9219 L913.2609,28.6406 Z " fill="#FFFFFF"/><text fill="#FFFFFF" font-family="sans-serif" font-size="14" lengthAdjust="spacing" textLength="111.1934" x="930.7922" y="27.8467">AbstractFactory</text><line style="stroke:#E7E7E7;stroke-width:0.5;" x1="818.32" x2="1121.9577" y1="39" y2="39"/><line style="stroke:#E7E7E7;stroke-width:0.5;" x1="818.32" x2="1121.9577" y1="47" y2="47"/><text fill="#FFFFFF" font-family="sans-serif" font-size="14" lengthAdjust="spacing" textLength="127.3467" x="823.32" y="63.9951">createBulb(): Bulb</text><text fill="#FFFFFF" font-family="sans-serif" font-size="14" lengthAdjust="spacing" textLength="170.3447" x="823.32" y="80.292">createFreezer(): Freezer</text><text fill="#FFFFFF" font-family="sans-serif" font-size="14" lengthAdjust="spacing" textLength="205.7686" x="823.32" y="96.5889">createTelevision(): Television</text><text fill="#FFFFFF" font-family="sans-serif" font-size="14" lengthAdjust="spacing" textLength="293.6377" x="823.32" y="112.8857">createWashingMachine(): WashinMachine</text></g><!--class SamsungFactory--><g id="elem_SamsungFactory"><rect codeLine="101" fill="#313139" height="113.1875" id="SamsungFactory" rx="2.5" ry="2.5" style="stroke:#E7E7E7;stroke-width:0.5;" width="575.3018" x="95.49" y="180.19"/><ellipse cx="320.1633" cy="196.19" fill="#2E5233" rx="11" ry="11" style="stroke:#E7E7E7;stroke-width:1;"/><path d="M323.1321,201.8306 Q322.554,202.1275 321.9133,202.2681 Q321.2727,202.4244 320.5696,202.4244 Q318.0696,202.4244 316.7415,200.7838 Q315.429,199.1275 315.429,196.0025 Q315.429,192.8775 316.7415,191.2213 Q318.0696,189.565 320.5696,189.565 Q321.2727,189.565 321.9133,189.7213 Q322.5696,189.8775 323.1321,190.1744 L323.1321,192.8931 Q322.5071,192.315 321.9133,192.0494 Q321.3196,191.7681 320.6946,191.7681 Q319.3508,191.7681 318.6633,192.8463 Q317.9758,193.9088 317.9758,196.0025 Q317.9758,198.0963 318.6633,199.1744 Q319.3508,200.2369 320.6946,200.2369 Q321.3196,200.2369 321.9133,199.9713 Q322.5071,199.69 323.1321,199.1119 L323.1321,201.8306 Z " fill="#FFFFFF"/><text fill="#FFFFFF" font-family="sans-serif" font-size="14" lengthAdjust="spacing" textLength="117.4551" x="340.6633" y="201.0367">SamsungFactory</text><line style="stroke:#E7E7E7;stroke-width:0.5;" x1="96.49" x2="669.7918" y1="212.19" y2="212.19"/><line style="stroke:#E7E7E7;stroke-width:0.5;" x1="96.49" x2="669.7918" y1="220.19" y2="220.19"/><text fill="#FFFFFF" font-family="sans-serif" font-size="14" lengthAdjust="spacing" textLength="298.457" x="101.49" y="237.1851">createBulb(): Bulb // creates SamsungBulb</text><text fill="#FFFFFF" font-family="sans-serif" font-size="14" lengthAdjust="spacing" textLength="362.9541" x="101.49" y="253.482">createFreezer(): Freezer // creates SamsungFreezer</text><text fill="#FFFFFF" font-family="sans-serif" font-size="14" lengthAdjust="spacing" textLength="416.0898" x="101.49" y="269.7789">createTelevision(): Television // creates SamsungTelevision</text><text fill="#FFFFFF" font-family="sans-serif" font-size="14" lengthAdjust="spacing" textLength="563.3018" x="101.49" y="286.0757">createWashingMachine(): WashingMachine // Creates SamsungWashingMachine</text></g><!--class XiaomiFactory--><g id="elem_XiaomiFactory"><rect codeLine="108" fill="#313139" height="113.1875" id="XiaomiFactory" rx="2.5" ry="2.5" style="stroke:#E7E7E7;stroke-width:0.5;" width="558.4238" x="1269.93" y="180.19"/><ellipse cx="1494.6033" cy="196.19" fill="#2E5233" rx="11" ry="11" style="stroke:#E7E7E7;stroke-width:1;"/><path d="M1497.5721,201.8306 Q1496.994,202.1275 1496.3533,202.2681 Q1495.7127,202.4244 1495.0096,202.4244 Q1492.5096,202.4244 1491.1815,200.7838 Q1489.869,199.1275 1489.869,196.0025 Q1489.869,192.8775 1491.1815,191.2213 Q1492.5096,189.565 1495.0096,189.565 Q1495.7127,189.565 1496.3533,189.7213 Q1497.0096,189.8775 1497.5721,190.1744 L1497.5721,192.8931 Q1496.9471,192.315 1496.3533,192.0494 Q1495.7596,191.7681 1495.1346,191.7681 Q1493.7908,191.7681 1493.1033,192.8463 Q1492.4158,193.9088 1492.4158,196.0025 Q1492.4158,198.0963 1493.1033,199.1744 Q1493.7908,200.2369 1495.1346,200.2369 Q1495.7596,200.2369 1496.3533,199.9713 Q1496.9471,199.69 1497.5721,199.1119 L1497.5721,201.8306 Z " fill="#FFFFFF"/><text fill="#FFFFFF" font-family="sans-serif" font-size="14" lengthAdjust="spacing" textLength="100.5771" x="1515.1033" y="201.0367">XiaomiFactory</text><line style="stroke:#E7E7E7;stroke-width:0.5;" x1="1270.93" x2="1827.3538" y1="212.19" y2="212.19"/><line style="stroke:#E7E7E7;stroke-width:0.5;" x1="1270.93" x2="1827.3538" y1="220.19" y2="220.19"/><text fill="#FFFFFF" font-family="sans-serif" font-size="14" lengthAdjust="spacing" textLength="281.5791" x="1275.93" y="237.1851">createBulb(): Bulb // creates XiaomiBulb</text><text fill="#FFFFFF" font-family="sans-serif" font-size="14" lengthAdjust="spacing" textLength="346.0762" x="1275.93" y="253.482">createFreezer(): Freezer // creates XiaomiFreezer</text><text fill="#FFFFFF" font-family="sans-serif" font-size="14" lengthAdjust="spacing" textLength="399.2119" x="1275.93" y="269.7789">createTelevision(): Television // creates XiaomiTelevision</text><text fill="#FFFFFF" font-family="sans-serif" font-size="14" lengthAdjust="spacing" textLength="546.4238" x="1275.93" y="286.0757">createWashingMachine(): WashingMachine // Creates XiaomiWashingMachine</text></g><!--class LGFactory--><g id="elem_LGFactory"><rect codeLine="115" fill="#313139" height="113.1875" id="LGFactory" rx="2.5" ry="2.5" style="stroke:#E7E7E7;stroke-width:0.5;" width="528.9199" x="705.68" y="180.19"/><ellipse cx="930.3533" cy="196.19" fill="#2E5233" rx="11" ry="11" style="stroke:#E7E7E7;stroke-width:1;"/><path d="M933.3221,201.8306 Q932.744,202.1275 932.1033,202.2681 Q931.4627,202.4244 930.7596,202.4244 Q928.2596,202.4244 926.9315,200.7838 Q925.619,199.1275 925.619,196.0025 Q925.619,192.8775 926.9315,191.2213 Q928.2596,189.565 930.7596,189.565 Q931.4627,189.565 932.1033,189.7213 Q932.7596,189.8775 933.3221,190.1744 L933.3221,192.8931 Q932.6971,192.315 932.1033,192.0494 Q931.5096,191.7681 930.8846,191.7681 Q929.5408,191.7681 928.8533,192.8463 Q928.1658,193.9088 928.1658,196.0025 Q928.1658,198.0963 928.8533,199.1744 Q929.5408,200.2369 930.8846,200.2369 Q931.5096,200.2369 932.1033,199.9713 Q932.6971,199.69 933.3221,199.1119 L933.3221,201.8306 Z " fill="#FFFFFF"/><text fill="#FFFFFF" font-family="sans-serif" font-size="14" lengthAdjust="spacing" textLength="71.0732" x="950.8533" y="201.0367">LGFactory</text><line style="stroke:#E7E7E7;stroke-width:0.5;" x1="706.68" x2="1233.5999" y1="212.19" y2="212.19"/><line style="stroke:#E7E7E7;stroke-width:0.5;" x1="706.68" x2="1233.5999" y1="220.19" y2="220.19"/><text fill="#FFFFFF" font-family="sans-serif" font-size="14" lengthAdjust="spacing" textLength="252.0752" x="711.68" y="237.1851">createBulb(): Bulb // creates LGBulb</text><text fill="#FFFFFF" font-family="sans-serif" font-size="14" lengthAdjust="spacing" textLength="316.5723" x="711.68" y="253.482">createFreezer(): Freezer // creates LGFreezer</text><text fill="#FFFFFF" font-family="sans-serif" font-size="14" lengthAdjust="spacing" textLength="369.708" x="711.68" y="269.7789">createTelevision(): Television // creates LGTelevision</text><text fill="#FFFFFF" font-family="sans-serif" font-size="14" lengthAdjust="spacing" textLength="516.9199" x="711.68" y="286.0757">createWashingMachine(): WashingMachine // Creates LGWashingMachine</text></g><!--reverse link Bulb to SamsungBulb--><g id="link_Bulb_SamsungBulb"><path d="M306.3085,501.0279 C263.7885,523.3879 210.74,552.21 153.14,587.56 C144.93,592.6 136.39,598.1 128.06,603.61 " fill="transparent" id="Bulb-backto-SamsungBulb" style="stroke:#E7E7E7;stroke-width:1;stroke-dasharray:7.0,7.0;"/><polygon fill="transparent" points="322.24,492.65,303.5159,495.7174,309.1012,506.3384,322.24,492.65" style="stroke:#E7E7E7;stroke-width:1;"/></g><!--reverse link Bulb to XiaomiBulb--><g id="link_Bulb_XiaomiBulb"><path d="M319.4048,525.765 C297.5148,553.325 279.66,575.8 257.75,603.37 " fill="transparent" id="Bulb-backto-XiaomiBulb" style="stroke:#E7E7E7;stroke-width:1;stroke-dasharray:7.0,7.0;"/><polygon fill="transparent" points="330.6,511.67,314.7065,522.0332,324.1032,529.4967,330.6,511.67" style="stroke:#E7E7E7;stroke-width:1;"/></g><!--reverse link Bulb to LGBulb--><g id="link_Bulb_LGBulb"><path d="M360.7921,529.6651 C360.1521,557.2251 359.72,575.8 359.07,603.37 " fill="transparent" id="Bulb-backto-LGBulb" style="stroke:#E7E7E7;stroke-width:1;stroke-dasharray:7.0,7.0;"/><polygon fill="transparent" points="361.21,511.67,354.7937,529.5259,366.7905,529.8044,361.21,511.67" style="stroke:#E7E7E7;stroke-width:1;"/></g><!--reverse link Freezer to SamsungFreezer--><g id="link_Freezer_SamsungFreezer"><path d="M1248.5024,544.0653 C1238.8324,563.0853 1236.2,568.27 1226.54,587.27 " fill="transparent" id="Freezer-backto-SamsungFreezer" style="stroke:#E7E7E7;stroke-width:1;stroke-dasharray:7.0,7.0;"/><polygon fill="transparent" points="1256.66,528.02,1243.1539,541.3461,1253.8508,546.7846,1256.66,528.02" style="stroke:#E7E7E7;stroke-width:1;"/></g><!--reverse link Freezer to XiaomiFreezer--><g id="link_Freezer_XiaomiFreezer"><path d="M1322.5841,543.99 C1332.4741,563.01 1335.21,568.27 1345.09,587.27 " fill="transparent" id="Freezer-backto-XiaomiFreezer" style="stroke:#E7E7E7;stroke-width:1;stroke-dasharray:7.0,7.0;"/><polygon fill="transparent" points="1314.28,528.02,1317.2607,546.7581,1327.9074,541.222,1314.28,528.02" style="stroke:#E7E7E7;stroke-width:1;"/></g><!--reverse link Freezer to LGFreezer--><g id="link_Freezer_LGFreezer"><path d="M1366.2505,526.1342 C1398.5005,547.6642 1422.86,563.96 1458.14,587.56 C1463.62,591.23 1469.3,595.03 1475,598.85 " fill="transparent" id="Freezer-backto-LGFreezer" style="stroke:#E7E7E7;stroke-width:1;stroke-dasharray:7.0,7.0;"/><polygon fill="transparent" points="1351.28,516.14,1362.9191,531.1244,1369.5819,521.1441,1351.28,516.14" style="stroke:#E7E7E7;stroke-width:1;"/></g><!--reverse link Television to SamsungTelevision--><g id="link_Television_SamsungTelevision"><path d="M1678.193,528.3308 C1689.463,555.8908 1697.6,575.8 1708.87,603.37 " fill="transparent" id="Television-backto-SamsungTelevision" style="stroke:#E7E7E7;stroke-width:1;stroke-dasharray:7.0,7.0;"/><polygon fill="transparent" points="1671.38,511.67,1672.6394,530.6018,1683.7466,526.0598,1671.38,511.67" style="stroke:#E7E7E7;stroke-width:1;"/></g><!--reverse link Television to XiaomiTelevision--><g id="link_Television_XiaomiTelevision"><path d="M1731.4725,521.4635 C1773.9725,549.0235 1815.26,575.8 1857.79,603.37 " fill="transparent" id="Television-backto-XiaomiTelevision" style="stroke:#E7E7E7;stroke-width:1;stroke-dasharray:7.0,7.0;"/><polygon fill="transparent" points="1716.37,511.67,1728.208,526.4977,1734.737,516.4294,1716.37,511.67" style="stroke:#E7E7E7;stroke-width:1;"/></g><!--reverse link Television to LGTelevision--><g id="link_Television_LGTelevision"><path d="M1747.5643,495.4975 C1821.1243,515.2475 1918.21,544.67 2012.14,587.56 C2022.33,592.21 2032.79,597.74 2042.85,603.47 " fill="transparent" id="Television-backto-LGTelevision" style="stroke:#E7E7E7;stroke-width:1;stroke-dasharray:7.0,7.0;"/><polygon fill="transparent" points="1730.18,490.83,1746.0085,501.2923,1749.1201,489.7027,1730.18,490.83" style="stroke:#E7E7E7;stroke-width:1;"/></g><!--reverse link WashingMachine to SamsungWashingMachine--><g id="link_WashingMachine_SamsungWashingMachine"><path d="M714.3364,529.779 C678.5864,553.319 650.65,571.72 614.89,595.25 " fill="transparent" id="WashingMachine-backto-SamsungWashingMachine" style="stroke:#E7E7E7;stroke-width:1;stroke-dasharray:7.0,7.0;"/><polygon fill="transparent" points="729.37,519.88,711.0367,524.7678,717.6361,534.7902,729.37,519.88" style="stroke:#E7E7E7;stroke-width:1;"/></g><!--reverse link WashingMachine to XiaomiWashingMachine--><g id="link_WashingMachine_XiaomiWashingMachine"><path d="M795.2453,537.5511 C792.7553,561.2011 791.65,571.78 789.16,595.43 " fill="transparent" id="WashingMachine-backto-XiaomiWashingMachine" style="stroke:#E7E7E7;stroke-width:1;stroke-dasharray:7.0,7.0;"/><polygon fill="transparent" points="797.13,519.65,789.2783,536.9228,801.2123,538.1793,797.13,519.65" style="stroke:#E7E7E7;stroke-width:1;"/></g><!--reverse link WashingMachine to LGWashingMachine--><g id="link_WashingMachine_LGWashingMachine"><path d="M872.1036,531.5509 C899.7436,555.0909 919.26,571.72 946.9,595.25 " fill="transparent" id="WashingMachine-backto-LGWashingMachine" style="stroke:#E7E7E7;stroke-width:1;stroke-dasharray:7.0,7.0;"/><polygon fill="transparent" points="858.4,519.88,868.2133,536.1188,875.9939,526.983,858.4,519.88" style="stroke:#E7E7E7;stroke-width:1;"/></g><!--reverse link AbstractFactory to SamsungFactory--><g id="link_AbstractFactory_SamsungFactory"><path d="M799.7795,114.2782 C725.8995,135.8182 653.76,156.86 575.34,179.73 " fill="transparent" id="AbstractFactory-backto-SamsungFactory" style="stroke:#E7E7E7;stroke-width:1;"/><polygon fill="transparent" points="817.06,109.24,798.1001,108.518,801.4589,120.0384,817.06,109.24" style="stroke:#E7E7E7;stroke-width:1;"/></g><!--reverse link AbstractFactory to XiaomiFactory--><g id="link_AbstractFactory_XiaomiFactory"><path d="M1140.6614,115.0134 C1213.1114,136.4334 1283.05,157.11 1359.61,179.75 " fill="transparent" id="AbstractFactory-backto-XiaomiFactory" style="stroke:#E7E7E7;stroke-width:1;"/><polygon fill="transparent" points="1123.4,109.91,1138.9603,120.7672,1142.3625,109.2596,1123.4,109.91" style="stroke:#E7E7E7;stroke-width:1;"/></g><!--reverse link AbstractFactory to LGFactory--><g id="link_AbstractFactory_LGFactory"><path d="M970.14,138.65 C970.14,157.66 970.14,160.89 970.14,179.89 " fill="transparent" id="AbstractFactory-backto-LGFactory" style="stroke:#E7E7E7;stroke-width:1;"/><polygon fill="transparent" points="970.14,120.65,964.14,138.65,976.14,138.65,970.14,120.65" style="stroke:#E7E7E7;stroke-width:1;"/></g><!--link SamsungFactory to Bulb--><g id="link_SamsungFactory_Bulb"><path codeLine="122" d="M378.09,293.69 C374.27,335.83 369.14,392.58 365.74,430.17 " fill="transparent" id="SamsungFactory-Bulb" style="stroke:#E7E7E7;stroke-width:1;"/></g><!--link SamsungFactory to Freezer--><g id="link_SamsungFactory_Freezer"><path codeLine="123" d="M600.92,293.84 C802.93,345.84 1091.09,420.02 1219.28,453.02 " fill="transparent" id="SamsungFactory-Freezer" style="stroke:#E7E7E7;stroke-width:1;"/></g><!--link SamsungFactory to WashingMachine--><g id="link_SamsungFactory_WashingMachine"><path codeLine="124" d="M484.3,293.84 C558.17,334.77 656.82,389.44 724.51,426.95 " fill="transparent" id="SamsungFactory-WashingMachine" style="stroke:#E7E7E7;stroke-width:1;"/></g><!--link SamsungFactory to Television--><g id="link_SamsungFactory_Television"><path codeLine="125" d="M670.9,290.27 C676.69,291.31 682.45,292.35 688.14,293.37 C990.25,347.79 1066.34,358.3 1368.14,414.37 C1440.12,427.75 1522.11,443.7 1579.97,455.08 " fill="transparent" id="SamsungFactory-Television" style="stroke:#E7E7E7;stroke-width:1;"/></g><!--link XiaomiFactory to Bulb--><g id="link_XiaomiFactory_Bulb"><path codeLine="127" d="M1269.72,292.44 C975.01,350.09 535.17,436.12 401.85,462.2 " fill="transparent" id="XiaomiFactory-Bulb" style="stroke:#E7E7E7;stroke-width:1;"/></g><!--link XiaomiFactory to Freezer--><g id="link_XiaomiFactory_Freezer"><path codeLine="128" d="M1485.57,293.69 C1444.07,330.19 1390.1,377.66 1348.62,414.14 " fill="transparent" id="XiaomiFactory-Freezer" style="stroke:#E7E7E7;stroke-width:1;"/></g><!--link XiaomiFactory to WashingMachine--><g id="link_XiaomiFactory_WashingMachine"><path codeLine="129" d="M1368.79,293.84 C1212.71,342.35 994.55,410.16 879.78,445.84 " fill="transparent" id="XiaomiFactory-WashingMachine" style="stroke:#E7E7E7;stroke-width:1;"/></g><!--link XiaomiFactory to Television--><g id="link_XiaomiFactory_Television"><path codeLine="130" d="M1574.67,293.69 C1593.9,335.83 1619.81,392.58 1636.98,430.17 " fill="transparent" id="XiaomiFactory-Television" style="stroke:#E7E7E7;stroke-width:1;"/></g><!--link LGFactory to Bulb--><g id="link_LGFactory_Bulb"><path codeLine="132" d="M823.35,293.84 C684.72,346.78 485.91,422.7 401.96,454.76 " fill="transparent" id="LGFactory-Bulb" style="stroke:#E7E7E7;stroke-width:1;"/></g><!--link LGFactory to Freezer--><g id="link_LGFactory_Freezer"><path codeLine="133" d="M1045.99,293.69 C1098.79,332.61 1168.5,383.99 1219.03,421.23 " fill="transparent" id="LGFactory-Freezer" style="stroke:#E7E7E7;stroke-width:1;"/></g><!--link LGFactory to WashingMachine--><g id="link_LGFactory_WashingMachine"><path codeLine="134" d="M929.69,293.69 C901.24,333.01 863.58,385.05 836.57,422.39 " fill="transparent" id="LGFactory-WashingMachine" style="stroke:#E7E7E7;stroke-width:1;"/></g><!--link LGFactory to Television--><g id="link_LGFactory_Television"><path codeLine="135" d="M1194.84,293.87 C1257.64,311.22 1325.53,331.55 1387.14,353.37 C1453.62,376.92 1526.92,409.27 1580.03,433.92 " fill="transparent" id="LGFactory-Television" style="stroke:#E7E7E7;stroke-width:1;"/></g><!--SRC=[lLKxRyCW4DxzAnZR8ShUhG_5YpkrKhiIvv8YsH01YTf6_UyrjJ4SaCfs7eDb_DtZEpxC7UCQv9gMG1vsrVAG4S5lRk_8Nh1LirxtwvyiAokg57cXjThnZV4chDvMK0FNAeucwV1tHaNDKj4a8a-45_c4q8prcrn8W6-Gn_T9n1Ruan3I8MKb520e5AFBwfTbeNyq6KVL2ZUK2MimZgd8BylYJkCLAjWpnGJ_I-i-VO846khlNFoIFNHY-bRpIsKlylDdTjg-KVN1-EQPbiqB3kvqehEnWD9KwYxigDGuhLzsO3cTiLN_YeH5VaMo-wNIafPwqJn2VZK9ImbKW-bdnjkyBTPTFWDtIsl1Vu7xidPSjl5faGw8ErbR3O5F3Nmrh4eodtSecWx7Yqy43DnM8dBudll3Qv8yuYJO8Mgw9uhYPjumJL2h7oD9sA-cA9AwTMWsd2X6Ey672T5FeZ4Y-6rrYW1X5p2R3sx7R3PhxsS2jnKdJ47UX8TNUOR_lPuoXYrZR0a8OmUVpnrjpuKXouFHW0CRNVvV]--></g></svg>